<?xml version="1.0" standalone="no"?>
<!DOCTYPE svg PUBLIC "-//W3C//DTD SVG 20010904//EN"
 "http://www.w3.org/TR/2001/REC-SVG-20010904/DTD/svg10.dtd">
<svg version="1.0" xmlns="http://www.w3.org/2000/svg"
 width="1380.000000pt" height="920.000000pt" viewBox="0 0 1380.000000 920.000000"
 preserveAspectRatio="xMidYMid meet">

<g transform="translate(0.000000,920.000000) scale(0.100000,-0.100000)"
fill="#000000" stroke="none">
<path d="M4500 7731 c0 -6 16 -7 36 -4 l35 6 -3 -92 -3 -91 25 0 25 0 -3 90
c-3 89 -3 90 20 90 13 0 29 -5 36 -12 9 -9 12 -8 12 5 0 15 -12 17 -90 17 -49
0 -90 -4 -90 -9z"/>
<path d="M4718 7731 c10 -6 13 -31 10 -95 -3 -84 -2 -86 20 -86 19 0 22 5 22
45 l0 45 51 0 51 0 -4 -45 c-3 -42 -2 -45 22 -45 l25 0 -3 86 c-3 64 0 89 10
95 8 5 -6 8 -37 8 -27 -1 -42 -3 -32 -6 12 -3 17 -15 17 -44 l0 -39 -51 0 -51
0 4 45 3 45 -35 0 c-23 0 -30 -3 -22 -9z"/>
<path d="M4978 7731 c10 -6 13 -31 10 -95 l-3 -86 63 0 c34 0 62 3 62 8 0 4
-19 7 -42 7 -42 0 -43 0 -43 35 0 33 2 35 33 35 17 0 32 5 32 10 0 7 -15 9
-36 7 l-35 -4 3 38 c2 32 7 40 26 42 13 2 30 -2 38 -8 11 -10 14 -9 14 4 0 13
-12 16 -67 16 -41 0 -63 -4 -55 -9z"/>
<path d="M8728 7733 c8 -3 12 -32 12 -94 0 -78 2 -89 18 -89 15 0 17 10 14 90
l-3 90 36 0 c50 0 71 -14 85 -54 14 -44 4 -81 -27 -106 -20 -16 -22 -20 -9
-20 30 0 76 55 76 90 0 69 -48 101 -152 99 -35 0 -57 -3 -50 -6z"/>
<path d="M9005 7728 c-56 -158 -61 -178 -48 -178 8 0 12 3 9 8 -2 4 2 22 9 40
23 54 85 38 89 -23 1 -18 7 -25 23 -25 21 0 21 1 -12 93 -31 87 -58 120 -70
85z m30 -65 c5 -20 3 -23 -19 -23 -30 0 -29 0 -16 36 11 29 23 24 35 -13z"/>
<path d="M9113 7726 c7 -8 28 -37 46 -65 24 -37 32 -59 29 -81 -4 -25 -1 -30
17 -30 18 0 20 5 17 33 -3 25 5 47 28 85 17 29 39 56 48 62 14 7 10 9 -15 10
-23 0 -31 -4 -27 -14 4 -11 -31 -86 -41 -86 -1 0 -15 19 -30 41 -21 33 -24 43
-13 50 8 6 -2 9 -30 9 -37 0 -41 -2 -29 -14z"/>
<path d="M1900 6330 c0 -12 -4 -18 -10 -15 -16 10 -11 -11 6 -26 23 -19 12
-140 -27 -289 -45 -169 -69 -303 -59 -315 6 -7 6 -24 0 -44 -5 -18 -7 -38 -5
-44 2 -7 6 -24 9 -39 6 -27 5 -28 -35 -28 l-40 0 7 58 c9 69 8 110 -2 171 l-8
46 -6 -65 c-4 -54 -8 -65 -22 -64 -24 2 -23 -13 2 -26 17 -9 18 -18 14 -63 -6
-51 -35 -102 -117 -202 l-25 -29 -255 -4 -255 -4 -40 -87 c-62 -134 -132 -349
-132 -407 0 -7 15 -15 34 -18 l35 -7 -6 -122 c-3 -67 -1 -146 4 -175 10 -51
10 -53 -16 -65 -36 -17 -41 -69 -9 -91 32 -23 46 -20 20 4 -25 24 -28 43 -8
59 14 12 46 5 46 -10 0 -4 6 -6 14 -3 8 3 12 13 9 25 -6 23 0 24 35 2 l27 -17
-19 22 c-26 29 -14 40 14 12 12 -12 24 -19 27 -16 8 8 -44 56 -62 56 -20 0
-19 13 3 40 16 19 24 22 55 16 20 -4 37 -11 37 -16 0 -18 29 -10 35 9 12 40
60 36 76 -7 7 -18 5 -31 -6 -48 -21 -32 -19 -41 5 -19 26 24 27 86 2 108 -22
21 -62 22 -87 3 -11 -8 -34 -11 -60 -8 -58 6 -83 -10 -91 -59 -15 -89 -24 -40
-24 125 l0 176 71 0 c73 0 209 26 209 40 0 4 -17 4 -37 -1 -42 -9 -323 -25
-323 -18 0 10 70 212 120 347 47 126 56 142 76 142 13 0 25 -4 28 -9 3 -4 -8
-46 -23 -92 -34 -96 -37 -94 -17 11 8 41 13 76 12 77 -2 2 -36 -97 -76 -219
-92 -282 -84 -256 -68 -236 7 9 18 25 25 35 10 16 11 15 6 -7 -5 -24 -5 -24 9
-5 8 11 28 48 43 83 15 34 30 61 32 59 2 -2 -9 -41 -25 -86 -16 -44 -26 -81
-22 -81 21 0 106 234 133 369 9 41 19 77 24 82 11 10 63 -1 63 -14 0 -5 -29
-98 -65 -205 -36 -107 -64 -199 -62 -205 10 -31 137 333 137 394 0 22 5 29 20
29 11 0 20 -2 20 -5 0 -11 -114 -353 -131 -392 -28 -66 -5 -51 29 20 32 64 97
269 108 337 6 34 10 40 30 40 30 0 30 -5 0 -71 -24 -55 -126 -344 -126 -358 0
-14 39 -5 61 15 l22 19 -6 -80 c-5 -83 7 -248 22 -288 5 -12 6 67 3 185 l-5
207 75 83 c184 205 328 389 328 422 0 5 -14 -5 -31 -24 l-31 -35 22 35 c11 19
26 45 32 58 6 12 15 22 20 22 13 0 9 -28 -4 -33 -9 -4 -10 -8 -2 -14 5 -4 27
-43 47 -86 70 -150 215 -329 336 -416 l45 -32 -1 -90 c-1 -80 -3 -92 -22 -105
-25 -18 -28 -65 -5 -88 14 -15 12 -16 -20 -16 -36 0 -66 -21 -66 -46 0 -9 -11
-30 -25 -48 -14 -18 -25 -40 -25 -48 0 -8 -9 -23 -20 -33 -26 -23 -26 -69 0
-95 21 -21 84 -28 95 -10 4 6 -5 7 -23 4 -54 -11 -96 57 -54 88 9 7 25 30 34
50 16 34 21 37 55 35 50 -3 59 27 14 46 -44 19 -21 37 46 37 31 0 53 4 53 11
0 5 -4 7 -10 4 -12 -7 -60 42 -60 61 0 8 11 21 24 29 33 22 56 9 90 -50 29
-49 41 -55 51 -25 8 26 40 43 66 35 12 -4 29 -26 40 -48 14 -32 19 -37 19 -19
0 50 -36 92 -79 92 -14 0 -20 11 -25 46 -9 70 -7 265 3 302 6 21 6 32 0 32 -6
0 -7 5 -4 10 3 6 1 10 -4 10 -6 0 -23 -19 -38 -42 -15 -24 -28 -45 -30 -47 -6
-9 -142 125 -186 181 -60 79 -207 299 -207 310 0 25 24 0 51 -54 45 -90 118
-185 202 -264 116 -110 159 -125 52 -18 -50 49 -107 109 -127 134 -57 72 -138
192 -138 207 0 26 18 12 52 -39 60 -90 181 -220 267 -288 45 -36 88 -67 94
-69 7 -2 -41 46 -105 108 -83 79 -120 123 -129 149 -16 49 -17 301 -1 311 9 5
-6 64 -53 211 -77 242 -77 243 -67 343 4 42 4 77 0 77 -4 0 -8 6 -8 14 0 8 -4
18 -10 21 -5 3 -10 -3 -10 -15z m32 -325 c8 -30 13 -55 9 -55 -11 0 -41 62
-41 86 0 42 16 26 32 -31z m-57 -157 c-3 -29 -9 -66 -12 -83 -4 -22 -2 -27 6
-19 6 5 18 41 25 78 8 37 17 71 20 74 3 3 6 -35 7 -84 0 -95 16 -91 21 6 2 27
6 50 9 50 15 0 28 -29 35 -78 3 -28 10 -52 15 -52 5 0 9 6 9 13 1 6 9 -4 20
-23 18 -35 18 -35 -3 -42 -29 -8 -137 -10 -176 -2 -36 7 -38 19 -16 85 7 24
19 63 25 87 15 58 23 53 15 -10z m76 -191 l66 1 -5 -96 c-2 -55 0 -114 7 -136
6 -22 9 -41 7 -43 -2 -2 -33 31 -70 75 -53 63 -71 78 -93 77 -28 0 -28 1 -31
68 l-3 68 28 -8 c15 -4 58 -7 94 -6z m-141 -235 c22 -46 35 -80 30 -77 -13 8
-90 141 -90 155 0 28 23 -1 60 -78z m29 31 c41 -85 98 -177 150 -241 63 -79
66 -94 4 -27 -83 89 -219 315 -190 315 7 0 23 -21 36 -47z m-279 -122 c0 -5
-7 -14 -15 -21 -13 -10 -15 -9 -15 9 0 12 6 21 15 21 8 0 15 -4 15 -9z m-390
-4 c0 -16 -33 -108 -37 -104 -8 9 18 107 28 107 5 0 9 -1 9 -3z m290 0 c0 -23
-81 -220 -87 -213 -3 2 5 35 16 73 11 37 23 85 26 106 5 28 11 37 25 37 11 0
20 -2 20 -3z m44 -19 c-15 -50 -34 -88 -43 -88 -7 0 -7 8 -1 26 6 14 10 39 10
55 0 23 4 29 21 29 16 0 19 -4 13 -22z m-109 -20 c-18 -78 -85 -254 -108 -282
l-26 -31 28 75 c23 61 55 158 86 258 3 6 9 12 15 12 8 0 9 -11 5 -32z m657
-235 c25 -23 72 -58 103 -78 40 -26 54 -40 47 -47 -15 -15 -45 6 -149 108 -88
87 -89 97 -1 17z m-683 0 c-12 -16 -42 -54 -67 -85 -40 -52 -62 -70 -62 -52 0
12 136 164 146 164 3 0 -5 -12 -17 -27z m806 -23 c42 -29 50 -39 45 -58 -5
-23 -7 -22 -67 24 -68 52 -78 74 -13 29 56 -39 60 -26 5 15 -25 19 -45 35 -45
37 0 5 14 -3 75 -47z m92 -188 c0 -48 6 -99 11 -114 9 -21 7 -29 -8 -43 -18
-16 -19 -15 -35 15 -9 17 -26 36 -39 42 -16 7 -26 22 -30 47 -7 43 -8 121 -1
121 10 0 61 -25 66 -34 4 -5 10 5 14 23 12 55 20 33 22 -57z"/>
<path d="M7301 6210 c-24 -5 -45 -11 -47 -12 -1 -2 62 -3 141 -3 88 0 135 3
122 8 -34 13 -167 17 -216 7z"/>
<path d="M8802 6188 c-15 -15 -15 -53 -1 -81 15 -30 50 -67 62 -67 6 0 1 10
-10 23 -41 45 -58 107 -29 107 13 0 48 -69 61 -122 6 -23 4 -28 -12 -28 -10 0
-28 -7 -40 -15 -21 -15 -53 -11 -53 5 0 5 -3 17 -7 27 -7 17 -6 17 21 0 27
-18 27 -18 16 2 -13 26 -47 49 -89 61 -39 11 -39 2 0 -36 46 -44 54 -63 32
-80 -25 -19 -28 -18 -41 19 -13 36 -57 95 -66 87 -3 -3 13 -34 34 -68 22 -35
40 -67 40 -73 0 -6 16 -1 35 11 28 17 38 19 56 9 19 -10 21 -9 16 4 -9 23 24
30 73 17 41 -11 51 -24 25 -34 -8 -3 -14 -13 -14 -23 1 -17 2 -17 6 0 7 26 67
23 93 -5 30 -32 62 -126 55 -159 -9 -39 -26 -48 -19 -10 7 35 -10 94 -33 113
-15 12 -15 11 -4 -9 14 -28 1 -31 -16 -3 -23 36 -63 50 -104 36 -30 -10 -40
-10 -55 1 -16 12 -17 15 -4 24 8 5 27 8 43 6 17 -2 26 1 24 7 -6 18 -67 19
-86 2 -27 -24 -89 -10 -128 29 -33 34 -108 70 -83 40 6 -7 34 -28 61 -46 l50
-32 -33 -27 -33 -28 -16 25 c-19 29 -74 68 -109 78 -15 5 3 -14 48 -49 39 -32
72 -63 72 -71 0 -26 -20 -26 -50 -1 -27 22 -138 71 -146 64 -1 -2 21 -23 49
-47 29 -24 71 -66 95 -93 35 -41 40 -53 30 -65 -10 -12 -14 -11 -25 12 -21 38
-55 31 -64 -14 -10 -46 -26 -53 -72 -30 -21 11 -61 23 -88 26 -27 3 -49 10
-49 16 0 12 105 -1 149 -19 50 -21 50 -9 -1 17 -55 28 -145 30 -203 4 l-40
-18 70 -8 c39 -4 96 -15 128 -25 52 -16 57 -20 57 -46 0 -18 5 -28 15 -28 21
0 19 -17 -4 -30 -11 -5 -23 -20 -27 -32 -4 -12 -18 -31 -31 -41 -19 -16 -24
-28 -23 -66 1 -25 -2 -67 -5 -92 -7 -44 -10 -47 -48 -59 -70 -21 -153 -88
-133 -107 2 -3 19 3 38 13 18 10 60 26 93 36 l60 18 -60 -6 -60 -5 45 25 c58
32 66 32 78 -3 5 -15 26 -38 45 -50 l36 -22 -32 -45 c-25 -36 -32 -56 -35
-109 -2 -36 0 -65 4 -65 5 0 20 26 34 58 38 87 150 190 150 137 0 -21 30 -18
60 4 24 19 25 19 48 1 18 -15 29 -17 48 -9 35 13 34 13 34 -27 0 -24 -4 -34
-12 -31 -7 2 -12 11 -10 18 6 22 -44 -29 -64 -67 -10 -18 -22 -34 -26 -34 -10
0 8 58 27 87 9 14 14 27 12 30 -9 8 -55 -81 -62 -119 -13 -67 15 -122 30 -60
10 41 57 142 66 142 10 0 72 -76 89 -110 8 -15 15 -20 18 -12 2 7 -6 30 -17
52 -11 22 -17 40 -13 40 4 0 -1 5 -10 11 -21 12 -24 69 -7 101 10 19 9 20 -7
13 -81 -33 -77 -33 -88 2 -11 33 32 73 79 73 19 0 35 -4 35 -9 0 -14 32 -23
44 -11 7 7 5 10 -7 10 -9 0 -17 6 -17 14 0 21 21 31 31 15 7 -11 9 -11 9 2 0
9 -7 20 -16 23 -21 8 -20 8 -38 -9 -13 -13 -23 -14 -54 -5 -40 10 -77 41 -65
53 12 13 68 7 91 -9 27 -19 26 -20 38 31 11 47 29 51 56 14 16 -22 18 -30 9
-48 -17 -30 -6 -41 28 -28 22 8 36 8 55 -1 48 -22 1 -62 -72 -62 l-37 0 29
-20 c17 -10 40 -36 53 -57 13 -21 23 -33 23 -27 0 6 -11 28 -25 49 -29 41 -29
42 0 45 60 7 74 1 77 -31 4 -44 34 -61 56 -33 14 16 21 19 35 10 13 -8 25 -7
47 6 l30 17 36 -53 c19 -30 46 -80 59 -112 34 -84 49 -83 43 0 l-6 67 24 -22
c20 -18 26 -20 39 -9 19 16 21 13 38 -35 20 -58 37 -56 37 3 0 59 -41 146 -80
170 l-25 16 27 -30 c25 -27 62 -103 55 -111 -2 -1 -18 15 -36 37 -31 39 -108
96 -117 87 -3 -2 6 -11 20 -20 28 -19 71 -85 61 -95 -4 -4 -15 4 -25 18 -10
14 -25 34 -33 45 -24 31 -29 13 -11 -39 21 -62 13 -68 -19 -14 -14 24 -47 64
-73 90 -48 48 -53 71 -11 50 39 -21 71 -19 81 4 11 25 111 57 170 55 41 -1 86
-24 86 -43 0 -9 -3 -9 -12 0 -20 20 -28 13 -21 -19 6 -29 5 -31 -15 -20 -11 6
-24 16 -27 21 -15 25 -24 7 -10 -20 19 -37 7 -39 -26 -4 -13 14 -33 31 -44 37
-11 6 0 -11 24 -36 43 -44 71 -59 71 -37 0 6 11 10 24 10 16 0 27 7 31 20 3
11 11 20 16 20 5 0 9 9 9 20 0 26 4 25 66 -10 30 -17 56 -25 59 -20 8 14 -70
95 -105 110 -35 14 -39 30 -9 30 32 0 59 19 59 40 0 11 -4 20 -10 20 -5 0 -10
11 -10 24 0 13 -6 27 -12 30 -7 3 4 3 25 0 35 -6 37 -5 37 19 0 28 -33 56 -85
75 -26 9 -19 11 52 11 45 1 94 -4 110 -9 l28 -10 -33 30 c-18 17 -58 37 -90
47 -54 16 -59 19 -59 46 l0 30 71 -6 c66 -5 69 -4 41 9 -32 14 -99 17 -128 6
-10 -4 -35 -6 -57 -4 -31 3 -40 8 -40 23 0 14 7 19 29 19 36 0 83 17 93 33 20
33 -42 48 -92 22 -49 -25 -34 -1 18 29 l47 27 -59 -6 c-49 -4 -61 -3 -71 12
-11 15 -9 19 17 30 17 7 49 13 72 13 30 0 37 3 26 10 -27 17 -84 11 -125 -14
-29 -18 -43 -22 -53 -14 -17 15 -57 -4 -73 -34 l-12 -23 25 23 c42 39 65 26
26 -15 -22 -24 -17 -45 6 -28 50 37 67 47 73 42 11 -12 -7 -37 -46 -63 -36
-23 -43 -25 -58 -13 -16 12 -17 12 -6 -2 19 -24 -6 -53 -40 -47 -32 6 -32 5
-10 -28 14 -22 14 -27 2 -35 -20 -12 -24 -11 -44 11 -12 13 -15 27 -11 44 3
14 2 28 -4 31 -5 3 -10 1 -10 -4 0 -6 -5 -11 -11 -11 -6 0 -9 6 -7 12 3 7 -4
21 -14 32 -20 22 -24 60 -5 54 6 -2 19 -19 28 -36 l17 -32 12 30 c7 17 25 37
39 45 14 8 21 14 14 15 -6 0 -25 -12 -42 -26 -38 -32 -42 -13 -7 38 45 67 100
137 104 134 2 -2 -6 -23 -18 -45 -44 -87 -44 -99 1 -48 57 66 129 100 129 61
0 -9 -25 -27 -62 -44 -71 -33 -67 -38 10 -15 55 17 87 50 76 78 -9 25 -28 27
-72 7 -23 -11 -42 -17 -42 -15 0 2 13 27 30 55 l30 50 -30 -15 c-16 -8 -46
-29 -65 -46 -26 -23 -35 -27 -35 -15 0 9 -8 16 -20 16 -11 0 -20 5 -20 11 0 8
-12 10 -35 6 l-36 -6 29 54 c25 46 27 53 10 44 -10 -6 -26 -26 -35 -44 -13
-28 -21 -33 -39 -29 -12 3 -25 0 -29 -6 -5 -7 -18 6 -35 37 -15 26 -37 56 -48
66 -19 18 -19 18 -5 -27 9 -25 13 -52 9 -61 -8 -22 -33 -19 -39 5 -7 26 -42
26 -59 1 -13 -18 -14 -18 -39 3 -13 12 -31 36 -38 54 -8 18 -22 37 -32 42 -22
12 -23 12 -37 -2z m139 -170 c17 -41 25 -34 25 19 -1 60 21 70 30 14 8 -47 16
-51 33 -15 6 14 17 24 24 21 16 -5 25 -56 15 -85 -5 -14 -4 -21 1 -17 11 6 25
-69 19 -106 -2 -20 -6 -15 -22 26 -24 61 -42 81 -81 91 -49 11 -95 66 -95 111
0 15 4 14 20 -7 11 -14 25 -37 31 -52z m227 -11 c13 -48 32 -63 32 -26 0 26
18 59 32 59 6 0 8 -11 5 -30 -8 -36 4 -39 26 -7 16 22 16 22 16 1 1 -12 -10
-38 -24 -58 -14 -21 -23 -40 -21 -44 2 -4 -1 -18 -8 -31 -9 -15 -16 -20 -20
-12 -4 6 -15 11 -24 11 -13 0 -20 15 -29 63 -7 34 -15 77 -19 96 -11 53 18 34
34 -22z m-44 -39 c9 -35 20 -87 25 -115 7 -47 6 -53 -11 -59 -11 -3 -26 -21
-34 -39 -14 -33 -31 -51 -40 -42 -3 2 5 23 16 45 16 31 22 60 22 124 1 46 -2
98 -6 116 -14 59 11 33 28 -30z m-345 -57 c10 -7 4 -17 -25 -44 -36 -33 -39
-39 -38 -90 0 -44 6 -62 27 -90 32 -42 33 -49 10 -46 -10 2 -29 -3 -42 -10
-12 -7 -32 -11 -42 -8 -23 6 -23 3 -2 -29 14 -22 14 -27 2 -35 -21 -13 -26
-11 -48 17 -15 20 -18 31 -11 44 7 13 7 21 0 25 -5 3 -10 1 -10 -4 0 -6 -5
-11 -11 -11 -6 0 -9 5 -7 12 2 6 -4 20 -14 30 -21 21 -25 62 -5 56 6 -2 19
-19 29 -37 15 -31 17 -31 23 -11 9 30 36 60 53 60 12 0 12 3 2 15 -7 8 -16 12
-21 9 -16 -10 -9 36 11 75 32 64 83 95 119 72z m62 -111 c3 -43 6 -58 7 -34 3
61 16 62 29 2 11 -52 12 -52 6 30 l-6 82 27 0 c38 0 61 -14 85 -54 22 -35 29
-110 11 -121 -17 -10 -60 26 -60 51 0 12 -4 25 -9 28 -5 4 -7 -2 -4 -13 3 -10
-3 -33 -12 -51 -11 -21 -15 -45 -12 -65 5 -27 1 -34 -19 -44 -30 -13 -134 -15
-134 -2 0 11 48 24 60 16 6 -4 10 -1 10 5 0 8 9 10 27 5 l27 -6 -22 18 c-13
10 -31 45 -41 78 l-19 60 -1 -41 c-1 -28 6 -50 20 -68 l20 -26 -23 0 c-36 0
-73 62 -73 123 0 43 4 52 33 78 52 47 66 37 73 -51z m-238 25 c10 -7 17 -22
15 -32 -3 -15 -7 -12 -26 15 -24 34 -20 41 11 17z m844 -35 c-20 -21 -45 -57
-57 -80 -24 -47 -50 -52 -74 -15 -21 31 -21 32 9 39 14 4 25 13 25 20 0 8 7
16 15 20 19 7 19 2 0 -34 -11 -21 1 -13 43 30 65 67 95 82 39 20z m153 12 c0
-5 -19 -14 -42 -21 -24 -7 -51 -15 -60 -17 -34 -10 -18 14 20 29 41 18 82 22
82 9z m-422 -44 c4 -19 -35 -35 -50 -20 -6 6 -3 15 8 26 19 19 38 17 42 -6z
m301 -2 c15 -18 5 -40 -25 -56 -13 -7 -24 -17 -24 -22 0 -11 11 -10 40 7 34
19 48 18 46 -2 -1 -18 10 -20 52 -7 13 4 22 2 22 -5 0 -6 -12 -13 -27 -16 -84
-18 -114 -28 -104 -38 6 -6 32 -5 75 3 62 11 127 8 154 -9 7 -4 -20 -8 -60 -8
-40 -1 -93 -7 -118 -14 l-45 -13 58 -8 c59 -8 137 -43 144 -65 2 -6 -20 -1
-54 12 -32 13 -69 25 -83 28 -14 2 -19 2 -12 0 6 -3 12 -9 12 -14 0 -5 17 -16
38 -25 l37 -17 -44 -8 c-49 -9 -56 -13 -47 -27 3 -5 22 -6 44 -2 40 7 62 4 62
-10 0 -4 -9 -10 -21 -13 -30 -8 -15 -25 17 -19 20 4 25 1 22 -9 -7 -20 -65
-38 -127 -38 -47 -1 -52 1 -45 17 13 31 16 92 5 106 -7 8 -9 25 -6 39 9 34
-21 95 -47 99 -11 2 -27 13 -35 24 -13 20 -11 24 17 50 16 16 30 34 30 39 0
12 20 35 31 35 4 0 12 -6 18 -14z m-273 -70 c-3 -14 -11 -26 -16 -26 -11 0
-14 53 -3 63 13 13 26 -12 19 -37z m-90 22 c-1 -7 -1 -10 1 -5 3 4 13 7 24 7
31 0 22 -30 -13 -45 -18 -7 -39 -23 -46 -34 -16 -27 -8 -26 36 1 28 17 38 19
53 10 19 -12 49 -6 49 9 0 18 42 8 65 -16 14 -13 25 -21 25 -17 0 5 -5 13 -12
20 -6 6 -9 15 -5 19 13 12 61 -11 73 -36 8 -15 14 -19 19 -11 9 14 31 -3 51
-41 21 -42 18 -57 -11 -51 -14 2 -25 10 -25 17 0 7 -8 23 -18 35 -15 19 -30
23 -102 27 -47 2 -91 9 -100 16 -12 9 -13 9 -2 -3 31 -36 7 -68 -56 -72 -45
-3 -50 -9 -26 -28 33 -28 36 -48 10 -65 -15 -10 -33 -14 -46 -10 -27 9 -66 83
-51 98 6 6 11 20 11 32 -1 18 -1 18 -11 3 -15 -26 -43 -23 -36 3 3 13 1 19 -6
16 -22 -7 -19 -45 4 -57 18 -10 21 -18 16 -57 -2 -25 -12 -52 -20 -60 -13 -14
-16 -13 -27 7 -11 20 -10 47 1 90 3 12 -5 14 -38 12 -54 -5 -67 17 -32 54 18
19 29 23 51 19 32 -8 36 4 12 40 -19 29 -15 69 7 73 19 3 50 -40 59 -83 l7
-30 16 38 c17 40 62 87 83 87 7 0 12 -6 10 -12z m-95 -41 c-1 -12 -15 -9 -19
4 -3 6 1 10 8 8 6 -3 11 -8 11 -12z m-464 -23 c7 -18 -14 -35 -36 -31 -8 1
-16 8 -19 16 -3 10 0 12 11 8 11 -4 14 -2 10 9 -3 9 1 14 11 14 9 0 19 -7 23
-16z m163 -50 c0 -12 -4 -13 -21 -3 -17 9 -19 13 -8 19 16 11 29 4 29 -16z
m-135 6 c8 -12 -5 -60 -16 -60 -5 0 -9 16 -9 35 0 33 12 46 25 25z m249 -40
c-8 -38 10 -60 47 -60 26 0 29 -3 29 -34 0 -28 -4 -35 -22 -38 -39 -5 -68 14
-79 54 -6 23 -23 48 -44 65 l-35 28 52 6 c29 3 54 6 55 7 1 1 0 -11 -3 -28z
m451 8 c14 -6 25 -15 25 -19 0 -5 -28 -36 -62 -70 -47 -46 -52 -53 -21 -28 55
42 64 33 16 -16 -20 -20 -28 -33 -17 -27 10 6 37 29 59 51 21 23 45 41 52 41
25 0 46 -47 38 -87 -9 -50 -26 -75 -66 -96 -32 -18 -36 -18 -74 -1 l-40 17 30
10 c36 12 53 24 66 49 8 16 0 13 -43 -11 -58 -33 -69 -61 -28 -71 16 -4 25
-13 25 -25 0 -16 -8 -21 -38 -23 -38 -3 -38 -3 -22 -28 9 -13 13 -29 10 -34
-19 -31 -69 17 -59 56 5 19 3 22 -17 17 -15 -4 -20 -3 -15 5 4 7 4 12 -1 12
-14 0 -36 61 -26 71 13 13 40 -19 45 -51 4 -24 5 -23 20 11 9 20 26 44 39 53
13 9 19 16 14 16 -6 0 -22 -11 -37 -25 l-27 -25 -15 27 c-8 16 -15 24 -16 20
0 -11 -40 12 -40 23 0 19 33 10 56 -16 20 -21 24 -22 24 -7 0 10 16 42 35 71
37 55 35 69 -5 27 -18 -19 -26 -22 -32 -13 -16 26 -8 49 22 59 16 6 32 19 35
30 7 22 49 26 90 7z m78 -8 c14 -11 29 -29 32 -40 3 -10 12 -17 19 -14 13 5
39 -20 49 -48 9 -27 -51 -137 -87 -159 -17 -10 -38 -19 -46 -19 -8 0 -1 8 15
18 37 23 51 39 65 76 9 26 9 27 -5 16 -13 -11 -14 -7 -9 31 5 36 2 49 -16 72
-12 15 -27 27 -35 27 -7 0 -15 14 -17 30 -5 35 0 37 35 10z m-823 -17 c0 -10
-11 -26 -24 -35 -22 -16 -25 -16 -37 -2 -11 14 -10 19 10 35 29 24 51 24 51 2z
m221 -22 c22 -21 39 -47 39 -57 0 -14 -6 -10 -20 14 -12 19 -38 41 -60 51 -22
10 -37 21 -33 24 14 15 37 5 74 -32z m-107 19 c12 0 31 -6 41 -14 18 -13 15
-14 -28 -9 -52 6 -91 -12 -102 -47 -4 -13 -15 -20 -31 -20 -13 0 -24 3 -24 8
0 18 33 52 50 52 11 0 25 9 32 20 7 11 19 18 26 15 8 -3 24 -5 36 -5z m-168
-78 c0 -17 3 -34 6 -37 3 -4 1 -21 -4 -39 -21 -67 22 -133 101 -157 23 -7 40
-17 38 -23 -7 -22 -55 -16 -110 13 -32 17 -55 26 -52 21 3 -6 2 -10 -3 -10
-13 0 -42 74 -42 106 0 30 24 80 42 87 9 4 9 6 1 6 -6 1 -15 -3 -18 -9 -3 -5
-11 -10 -17 -10 -14 0 -1 50 20 73 22 24 37 16 38 -21z m252 5 c36 -33 54 -71
39 -86 -17 -17 -40 -13 -66 14 -31 33 -48 32 -22 -1 12 -15 21 -37 21 -50 0
-13 11 -34 25 -45 l24 -22 -36 -44 c-36 -43 -70 -69 -80 -60 -8 8 21 47 35 47
7 0 11 4 7 9 -3 6 3 14 12 20 16 9 16 10 2 11 -10 0 -41 16 -69 35 -29 20 -55
33 -58 31 -9 -10 60 -66 80 -66 28 0 17 -24 -13 -28 -36 -3 -101 39 -123 80
-18 31 -18 40 -8 77 7 22 19 41 26 41 8 0 35 -24 61 -52 58 -65 94 -89 42 -28
-45 53 -40 66 8 20 53 -52 42 -26 -16 35 l-50 54 21 21 c19 19 29 21 68 16 27
-4 56 -15 70 -29z m297 -59 c11 -18 20 -48 22 -66 2 -32 1 -34 -25 -26 -15 4
-38 8 -51 9 -32 2 -40 51 -10 60 10 4 22 17 25 31 8 32 16 30 39 -8z m97 10
c-7 -7 -12 -8 -12 -2 0 14 12 26 19 19 2 -3 -1 -11 -7 -17z m-292 -20 c0 -7
-5 -20 -10 -28 -7 -11 -12 -12 -21 -3 -9 9 -8 15 2 27 17 19 29 20 29 4z m754
-87 c34 -16 75 -44 91 -62 l30 -32 -41 32 c-22 17 -64 40 -92 51 -56 21 -137
27 -147 10 -3 -5 -10 -10 -16 -10 -5 0 1 12 14 26 19 22 28 25 61 21 21 -3 66
-19 100 -36z m-506 -38 c-2 -10 -13 -19 -25 -21 -17 -3 -20 1 -16 17 7 26 46
29 41 4z m188 -21 c-22 -5 -30 3 -21 18 5 8 11 7 22 -2 15 -12 14 -13 -1 -16z
m-166 -36 c0 -38 -16 -57 -26 -32 -8 21 3 66 16 66 6 0 10 -15 10 -34z m-558
-53 c2 -5 -21 -32 -49 -60 -59 -59 -65 -55 -28 17 20 39 31 50 50 50 13 0 25
-3 27 -7z"/>
<path d="M8664 5701 c-10 -26 -9 -27 12 -23 20 4 22 7 12 26 -6 11 -11 22 -12
23 -1 1 -7 -10 -12 -26z"/>
<path d="M7104 6156 c-10 -26 3 -88 26 -118 24 -33 13 -36 -24 -7 -14 11 -26
16 -26 10 0 -14 37 -51 50 -51 12 0 50 -40 50 -53 0 -5 -14 -7 -31 -5 -41 6
-65 -26 -49 -66 13 -35 50 -48 100 -37 22 5 41 6 41 2 1 -3 2 -13 3 -21 1 -20
50 -25 68 -7 11 11 31 14 80 10 59 -5 72 -3 113 21 41 22 52 24 88 16 52 -11
59 -6 15 10 -18 7 -91 15 -163 17 -71 3 -134 9 -139 14 -6 5 -21 9 -34 9 -24
0 -24 0 7 29 17 16 31 36 31 45 0 25 -36 19 -59 -10 -12 -15 -21 -25 -22 -23
-1 7 -10 133 -12 181 -2 57 -17 53 -17 -5 0 -39 -14 -78 -23 -67 -2 3 -11 26
-21 52 -21 56 -43 79 -52 54z m46 -82 c25 -58 25 -78 1 -39 -21 32 -37 85 -27
85 4 0 16 -21 26 -46z m124 -129 c-4 -8 -10 -15 -15 -15 -4 0 -6 7 -3 15 4 8
10 15 15 15 4 0 6 -7 3 -15z m-54 -30 c0 -8 -4 -15 -10 -15 -5 0 -7 7 -4 15 4
8 8 15 10 15 2 0 4 -7 4 -15z m-100 -30 c0 -8 -2 -15 -4 -15 -2 0 -6 7 -10 15
-3 8 -1 15 4 15 6 0 10 -7 10 -15z m95 -14 c-16 -14 -55 -23 -55 -12 0 8 16
14 55 20 6 0 6 -2 0 -8z m175 -21 c0 -5 -3 -10 -7 -10 -5 0 -18 -3 -30 -6 -13
-4 -23 -2 -23 4 0 10 19 18 48 21 6 0 12 -3 12 -9z m115 1 c-6 -6 -30 -13 -55
-17 -41 -7 -44 -6 -31 9 8 11 28 17 54 17 26 0 37 -4 32 -9z"/>
<path d="M7582 6092 c3 -42 7 -106 9 -142 l2 -65 10 60 c7 42 7 81 -2 134 -15
101 -28 109 -19 13z"/>
<path d="M7281 6127 c31 -12 197 -13 227 -1 15 7 -20 10 -114 10 -97 1 -130
-2 -113 -9z"/>
<path d="M3769 6093 c-12 -69 -14 -231 -5 -298 10 -71 24 -85 88 -92 l54 -5 1
-92 c1 -55 7 -108 16 -136 9 -24 15 -45 14 -47 -2 -1 -119 -3 -262 -4 -143 -2
-336 -6 -430 -11 -263 -14 -288 -33 -311 -236 -17 -150 -17 -426 0 -568 23
-201 47 -218 331 -234 405 -22 1021 -7 1091 26 64 30 85 71 100 191 16 129 18
435 4 571 -20 188 -53 229 -198 243 -48 4 -135 9 -194 12 -60 2 -110 6 -113 8
-8 9 -25 143 -25 207 0 62 0 62 29 62 16 0 35 2 43 5 10 4 13 -15 14 -92 0
-62 6 -113 16 -138 15 -38 15 -34 10 95 l-5 136 75 12 c69 12 75 15 72 35 -2
12 -12 69 -23 127 -11 58 -22 125 -26 150 l-5 45 -83 -3 c-117 -4 -263 10
-259 26 1 6 -2 12 -8 12 -5 0 -11 -3 -11 -7z m311 -71 c-34 -27 -70 -82 -70
-108 0 -16 3 -15 18 7 19 30 79 99 85 99 2 0 7 -33 10 -72 3 -40 15 -98 26
-128 26 -69 26 -69 -6 -38 -34 31 -65 48 -89 48 -10 0 8 -19 45 -46 34 -26 60
-49 57 -51 -2 -2 -75 -7 -163 -10 l-158 -5 21 24 c12 13 25 34 29 48 7 22 2
20 -39 -18 -25 -24 -51 -40 -56 -37 -13 8 -13 275 0 275 6 0 10 -4 10 -10 0
-16 38 -50 57 -50 14 0 14 3 -4 23 -11 12 -27 33 -36 47 l-16 25 154 0 154 0
-29 -23z m-74 -632 l110 0 0 -35 c0 -34 -1 -35 -37 -35 -21 0 -44 -3 -53 -6
-19 -7 -22 -67 -3 -82 6 -5 60 -15 120 -22 92 -11 107 -15 107 -31 0 -22 32
-41 55 -33 14 6 13 8 -6 18 -32 16 -36 36 -6 36 13 0 27 3 31 8 4 4 30 7 57 7
52 0 59 -6 59 -56 0 -23 -5 -29 -21 -29 -11 0 -29 5 -40 11 -19 10 -19 9 -9
-10 13 -25 29 -29 61 -16 14 5 17 -11 24 -135 4 -77 4 -193 0 -255 l-7 -115
-34 0 c-19 0 -34 -4 -34 -9 0 -14 32 -23 44 -11 16 16 25 12 19 -9 -4 -14 -17
-20 -54 -23 -54 -6 -112 -39 -128 -76 -6 -13 -11 -38 -11 -57 0 -27 -4 -35
-18 -35 -15 0 -18 6 -14 29 2 16 -1 32 -7 35 -7 4 -13 -8 -17 -32 l-6 -39
-188 -7 c-164 -6 -579 0 -635 9 -11 2 -46 4 -77 4 l-58 1 -6 40 c-4 22 -11 37
-16 34 -6 -4 -8 -22 -5 -40 10 -59 -21 -40 -47 28 -22 59 -59 86 -136 101 -46
9 -60 16 -60 29 0 14 6 16 28 12 16 -3 35 1 47 10 19 14 17 15 -32 16 l-51 0
-7 118 c-7 111 0 367 11 395 3 8 17 12 38 9 27 -3 37 1 45 17 11 19 10 20 -15
11 -34 -13 -64 -4 -64 19 0 14 9 17 48 17 84 0 153 57 157 130 3 39 14 50 40
40 12 -4 13 -11 5 -32 -13 -32 -6 -42 16 -24 9 8 14 23 11 37 -2 13 1 24 7 24
56 7 428 16 526 13 69 -2 175 -4 236 -4z m187 -36 c5 -28 0 -34 -25 -34 -18 0
-43 44 -33 59 10 17 53 -1 58 -25z m147 10 c45 -18 77 -56 86 -103 6 -28 4
-31 -18 -31 -32 0 -68 27 -68 50 0 26 -37 50 -77 50 -29 0 -53 20 -53 44 0 13
92 5 130 -10z m-1194 -26 c-11 -55 -65 -99 -139 -113 -35 -7 -37 -6 -37 19 0
69 63 126 139 126 l44 0 -7 -32z m1166 -51 c13 -21 8 -46 -11 -56 -17 -10
-234 2 -268 14 -14 5 -18 47 -5 59 11 13 276 -4 284 -17z m123 -747 c11 -18
-15 -76 -49 -109 -26 -25 -46 -35 -80 -38 -38 -5 -46 -3 -46 11 0 55 55 114
128 136 37 11 40 11 47 0z m-1410 -11 c50 -14 100 -51 120 -89 8 -16 15 -32
15 -36 0 -14 -108 3 -133 22 -23 16 -67 87 -67 107 0 10 19 9 65 -4z"/>
<path d="M3600 5235 c-91 -26 -155 -70 -214 -148 l-30 -39 -165 7 c-91 3 -181
8 -199 11 -21 3 -32 1 -28 -4 10 -17 173 -34 282 -30 57 2 104 1 104 -3 0 -4
-7 -26 -15 -49 -8 -23 -15 -55 -15 -71 0 -24 -5 -29 -37 -35 -20 -4 -96 -3
-170 2 -73 5 -133 6 -133 2 0 -23 245 -36 320 -17 11 3 16 -10 21 -56 4 -33
12 -75 18 -93 l10 -33 -184 7 c-130 5 -185 4 -185 -4 0 -6 8 -11 18 -10 9 0
87 -3 172 -7 l155 -8 1 -33 c1 -38 28 -74 57 -74 17 0 15 4 -12 35 -17 20 -31
47 -31 60 0 35 12 31 35 -12 29 -54 96 -118 156 -150 49 -25 64 -28 154 -28
92 0 106 3 167 32 40 19 89 53 118 82 29 29 56 48 64 45 21 -8 8 -41 -32 -80
-36 -35 -32 -43 12 -23 25 12 50 55 44 78 -2 9 36 13 142 15 84 2 163 10 189
17 39 13 23 14 -158 11 -111 -2 -201 0 -201 5 0 5 7 18 15 31 19 26 47 92 40
92 -2 0 -17 -23 -31 -52 -34 -66 -134 -167 -197 -197 -26 -13 -77 -28 -113
-34 -120 -21 -245 31 -319 131 -186 253 -40 601 259 620 39 2 89 -1 110 -7 47
-13 61 -6 20 9 -49 19 -154 21 -214 5z"/>
<path d="M3143 5214 c-13 -15 -17 -24 -10 -27 20 -7 47 12 47 33 0 25 -10 24
-37 -6z"/>
<path d="M3959 5128 c51 -69 66 -100 86 -178 30 -118 40 -113 20 10 l-5 35
132 2 c192 3 245 21 66 22 l-137 1 5 30 c8 35 -11 87 -37 100 -28 15 -28 13
-2 -37 29 -58 27 -97 -4 -101 -17 -3 -25 5 -37 32 -15 36 -101 136 -118 136
-5 0 9 -24 31 -52z"/>
<path d="M3365 5125 c-20 -20 -34 -40 -31 -43 8 -8 54 26 66 49 20 36 2 33
-35 -6z"/>
<path d="M3649 5140 c-138 -24 -217 -125 -212 -268 4 -104 89 -228 186 -272
51 -24 78 -25 146 -4 104 31 211 172 211 277 0 34 -31 110 -49 121 -17 11 -13
-3 9 -31 26 -34 27 -122 1 -179 -44 -97 -151 -174 -241 -174 -33 0 -58 8 -91
28 -145 92 -192 275 -102 395 75 99 272 127 363 51 16 -14 30 -22 30 -17 0 14
-42 50 -71 61 -39 15 -129 21 -180 12z"/>
<path d="M3645 5041 c-47 -22 -89 -64 -104 -104 -14 -36 -14 -67 -1 -67 6 0 9
3 9 8 -4 26 6 48 42 87 43 47 93 71 174 84 l50 9 -65 1 c-44 0 -78 -5 -105
-18z"/>
<path d="M2986 4981 c17 -19 160 -30 248 -21 43 5 81 12 84 15 3 3 -58 5 -135
5 -77 0 -156 3 -174 6 -26 5 -31 4 -23 -5z"/>
<path d="M3876 4933 c5 -10 9 -42 9 -70 0 -46 -4 -57 -31 -84 -46 -46 -90 -51
-209 -25 -22 4 -16 -1 20 -19 80 -40 161 -29 214 28 31 35 40 111 17 155 -17
33 -35 46 -20 15z"/>
<path d="M4103 4943 c11 -18 92 -33 174 -32 135 1 126 15 -15 23 -73 4 -140
10 -149 13 -10 4 -14 2 -10 -4z"/>
<path d="M4116 4831 c27 -30 246 -38 293 -11 11 6 -31 9 -126 10 -78 0 -150 3
-160 6 -13 5 -15 4 -7 -5z"/>
<path d="M3008 4779 c36 -14 184 -23 228 -14 l39 9 -50 7 c-77 11 -245 10
-217 -2z"/>
<path d="M4126 4729 c18 -29 242 -36 268 -9 8 9 6 11 -9 7 -11 -4 -75 -3 -142
1 -66 4 -119 4 -117 1z"/>
<path d="M3120 4580 c0 -13 37 -50 51 -50 11 0 4 15 -19 43 -17 19 -32 22 -32
7z"/>
<path d="M4265 4549 l-30 -19 28 0 c16 0 30 7 34 15 8 23 1 24 -32 4z"/>
<path d="M12030 6069 c-105 -20 -124 -43 -140 -161 -15 -117 -23 -244 -15
-236 4 4 11 44 16 90 24 242 35 262 154 283 145 26 521 13 585 -20 20 -10 33
-29 44 -62 19 -62 56 -235 56 -267 l0 -25 -47 22 c-46 21 -60 22 -348 22 -327
0 -364 -5 -415 -60 l-23 -24 -29 24 c-41 35 -89 41 -135 19 -30 -15 -45 -33
-72 -87 -34 -68 -34 -68 -22 -135 15 -80 40 -140 81 -192 16 -21 30 -40 30
-43 0 -3 -19 -4 -42 -3 -40 1 -43 -1 -46 -27 -4 -36 62 -107 101 -107 15 0 27
-4 27 -9 0 -25 -31 -88 -91 -181 -66 -103 -93 -160 -70 -146 6 4 11 12 11 17
0 6 17 31 39 57 21 26 57 78 79 115 l40 68 12 -56 c9 -42 9 -64 0 -90 -9 -26
-9 -44 -1 -67 17 -48 13 -68 -13 -78 -34 -12 -46 -39 -46 -99 0 -56 15 -71 68
-71 44 0 58 25 60 103 1 59 -1 70 -17 74 -21 5 -35 83 -25 144 6 35 8 37 55
43 81 11 79 9 79 101 l0 83 173 4 c94 3 175 3 179 1 11 -5 -28 -99 -56 -136
-35 -46 -133 -120 -141 -107 -10 15 -68 12 -93 -6 -12 -8 -22 -24 -22 -35 0
-10 -5 -19 -11 -19 -16 0 -6 -62 13 -73 21 -14 92 7 120 35 15 15 19 29 15 52
-5 30 -2 33 46 59 28 15 52 26 53 24 1 -1 -23 -47 -54 -102 -50 -88 -57 -106
-57 -155 0 -30 3 -64 7 -75 5 -15 0 -25 -24 -40 -57 -36 -71 -126 -32 -203 25
-51 89 -55 118 -9 11 18 12 38 4 100 -7 51 -14 74 -19 65 -12 -19 -11 -69 3
-108 9 -29 9 -35 -7 -47 -23 -16 -67 -17 -83 -1 -7 7 -12 43 -12 91 l0 78 37
16 c28 11 42 12 55 4 27 -17 22 6 -7 31 -21 18 -25 30 -25 78 0 49 6 65 46
130 25 41 60 102 76 135 l30 59 19 -37 c23 -44 24 -50 6 -53 -45 -6 -56 -17
-73 -67 -9 -29 -27 -76 -40 -105 -15 -33 -19 -52 -11 -49 20 6 56 79 69 140
12 55 13 57 45 57 34 0 73 -28 73 -53 0 -7 -18 -50 -40 -96 -46 -95 -48 -101
-19 -75 61 55 90 185 50 228 -19 22 -57 124 -48 132 2 3 15 -14 27 -38 13 -24
30 -56 39 -73 10 -19 17 -63 19 -122 3 -81 7 -94 28 -114 31 -29 31 -49 -1
-49 -16 0 -28 -7 -31 -17 -3 -10 -17 -47 -31 -83 -49 -124 -54 -140 -43 -159
21 -40 100 -33 100 9 0 20 28 91 63 157 l21 42 -22 30 c-12 17 -22 36 -22 42
0 7 -7 21 -16 31 -13 13 -18 42 -20 118 l-3 99 34 -16 c28 -13 32 -19 24 -34
-18 -34 -9 -57 42 -103 47 -43 55 -46 105 -46 48 0 56 3 76 30 l22 30 18 -49
c12 -31 35 -65 63 -90 49 -45 52 -51 31 -51 -38 0 -51 -82 -22 -138 21 -41 82
-92 110 -92 31 0 76 37 76 62 0 20 -2 19 -25 -6 -49 -52 -98 -29 -149 71 -25
49 -20 62 30 83 55 24 64 25 64 5 0 -22 35 -88 55 -105 29 -24 25 -3 -12 63
-33 58 -42 66 -67 67 -21 0 -40 12 -67 40 -57 59 -68 89 -79 198 -5 54 -12
117 -16 140 -5 34 -4 42 8 42 9 0 18 -13 22 -31 3 -17 19 -43 36 -59 28 -26
29 -29 16 -55 -13 -25 -12 -31 6 -64 25 -45 53 -68 100 -81 51 -14 86 -3 104
32 16 31 11 68 -10 68 -6 0 -30 18 -51 40 -35 36 -45 41 -80 38 -38 -3 -42 -1
-73 47 -29 45 -31 51 -16 62 9 7 22 14 27 16 6 2 11 37 11 85 0 77 1 82 20 80
14 -2 28 9 48 37 30 43 37 85 14 85 -8 0 -13 -6 -13 -12 0 -7 -8 -32 -18 -56
l-18 -43 -51 3 -51 3 -3 41 c-3 39 -1 42 29 48 17 3 43 6 58 6 67 1 152 238
128 358 -11 54 -64 108 -115 116 -38 7 -94 -5 -117 -24 -11 -9 -15 -5 -19 22
-3 18 -13 78 -22 133 -21 129 -43 194 -74 217 -16 12 -56 22 -110 28 -103 12
-448 11 -510 -1z m661 -395 c31 -13 39 -21 36 -35 -7 -26 16 -30 28 -5 12 24
79 49 107 40 14 -4 17 -11 11 -27 -21 -61 5 -112 63 -123 19 -3 36 -10 39 -13
2 -4 -4 -48 -14 -97 -19 -91 -52 -171 -74 -180 -7 -2 -111 -3 -232 -2 l-220 3
36 23 c27 16 45 20 68 16 24 -5 31 -3 31 9 0 11 11 17 37 19 34 3 38 6 44 38
4 19 3 40 -2 46 -7 8 8 29 45 67 53 55 75 92 61 105 -4 4 -22 -10 -40 -30 -35
-42 -45 -46 -45 -22 0 32 -25 6 -42 -42 -12 -37 -18 -45 -23 -31 -9 21 -28 22
-45 2 -8 -9 -21 -13 -35 -9 -16 4 -26 0 -33 -12 -5 -9 -38 -31 -73 -49 -60
-30 -64 -34 -67 -68 -2 -27 1 -39 12 -43 40 -16 2 -21 -181 -28 -109 -3 -246
-9 -304 -12 l-105 -6 -42 64 c-37 58 -72 157 -72 207 0 17 6 21 34 21 62 0 93
71 62 141 -5 12 -1 18 18 23 30 7 68 -6 96 -34 26 -26 25 -36 -5 -44 -46 -12
-26 -76 45 -140 27 -24 40 -43 36 -53 -10 -25 13 -92 35 -104 11 -6 28 -8 36
-5 9 4 21 -1 28 -10 9 -12 29 -17 81 -18 113 -1 158 23 114 61 -11 10 -25 32
-31 50 -6 18 -14 33 -19 33 -5 0 -21 11 -36 25 -16 14 -37 25 -48 24 -35 -3
-86 24 -92 48 -8 31 -40 56 -63 50 -41 -10 -60 52 -28 89 43 49 77 53 414 54
267 0 319 -2 354 -16z m261 -56 c20 -31 30 -75 19 -82 -13 -8 -75 37 -79 58
-2 10 -1 29 2 42 5 20 10 23 25 15 10 -6 25 -20 33 -33z m-1206 -5 c9 -34 -13
-74 -50 -91 -37 -18 -43 -9 -22 36 40 86 61 101 72 55z m158 -84 c14 -17 26
-40 26 -52 0 -22 -1 -21 -21 3 -52 66 -57 112 -5 49z m80 -31 c18 -25 20 -38
8 -38 -4 0 -16 14 -25 30 -21 35 -6 41 17 8z m84 -93 l4 -30 -26 24 c-27 25
-26 44 2 39 10 -2 18 -15 20 -33z m58 14 c10 -17 -13 -36 -27 -22 -12 12 -4
33 11 33 5 0 12 -5 16 -11z m451 -13 c-9 -22 29 -52 47 -37 11 9 14 7 14 -14
0 -38 -21 -49 -57 -30 -22 11 -31 23 -31 39 0 32 10 56 22 56 6 0 8 -6 5 -14z
m-39 -49 c-4 -27 -54 -33 -68 -7 -13 25 -13 33 2 28 7 -3 19 2 26 9 18 18 44
-2 40 -30z m-543 23 c-3 -5 -10 -10 -16 -10 -5 0 -9 5 -9 10 0 6 7 10 16 10 8
0 12 -4 9 -10z m180 -29 c-3 -12 -11 -21 -16 -21 -5 0 -9 -13 -9 -30 0 -16 -4
-30 -10 -30 -5 0 -10 7 -10 16 0 9 -11 27 -25 40 -14 13 -25 28 -25 34 0 13
27 13 35 0 10 -16 42 -12 49 6 9 24 19 10 11 -15z m-114 -20 c-12 -22 -53 -37
-70 -26 -17 10 -13 22 12 30 12 5 31 11 42 15 26 9 29 6 16 -19z m387 3 c23
-20 18 -61 -9 -69 -26 -8 -56 2 -63 22 -9 22 0 28 19 13 8 -7 22 -10 30 -6 17
6 21 36 5 36 -5 0 -10 5 -10 10 0 14 7 13 28 -6z m-358 -33 c0 -23 -16 -36
-25 -21 -9 14 1 40 15 40 5 0 10 -9 10 -19z m124 13 c22 -8 20 -21 -4 -27 -15
-4 -20 0 -20 14 0 21 1 22 24 13z m344 -13 c3 -8 -1 -12 -9 -9 -7 2 -15 10
-17 17 -3 8 1 12 9 9 7 -2 15 -10 17 -17z m-723 -131 c1 -14 5 -35 9 -47 6
-20 4 -22 -33 -21 -21 0 -43 -2 -49 -6 -16 -9 -89 84 -79 101 3 4 38 6 78 3
69 -5 72 -6 74 -30z m925 14 c0 -14 5 -34 10 -45 10 -18 7 -19 -75 -19 -47 0
-85 4 -85 8 0 5 21 14 48 20 l47 11 -52 -6 -53 -5 0 31 0 31 80 0 c79 0 80 0
80 -26z m-719 -29 c4 -22 6 -41 5 -41 0 -1 -41 -3 -91 -5 l-90 -4 -3 42 c-3
42 -3 42 35 46 21 2 60 4 88 3 l50 -1 6 -40z m537 20 l0 -25 -229 -2 c-126 -1
-241 -2 -256 -2 -19 -1 -29 5 -31 17 -3 15 8 17 115 18 65 1 165 5 223 9 189
12 178 13 178 -15z m-443 -55 c-44 -11 -65 -11 -65 0 0 6 21 9 48 9 42 -1 44
-2 17 -9z m701 -82 c-6 -71 -14 -95 -23 -70 -4 10 -8 9 -17 -3 -8 -11 -20 -14
-43 -9 -34 7 -43 29 -43 110 l0 44 66 0 67 0 -7 -72z m-146 -19 c0 -72 2 -81
20 -86 11 -3 20 -10 21 -17 0 -6 4 -48 7 -93 7 -84 4 -95 -18 -68 -7 8 -17 15
-24 15 -6 0 -37 16 -69 36 -55 34 -59 35 -83 20 -23 -16 -27 -15 -69 10 -25
14 -54 38 -65 54 -29 41 -60 118 -60 150 0 61 -3 60 176 60 l164 0 0 -81z
m-739 -4 c-2 -38 -5 -72 -8 -75 -2 -2 -27 -4 -55 -5 l-52 0 -12 65 c-7 36 -13
68 -13 72 -1 8 58 16 109 14 l35 -1 -4 -70z m155 -186 c19 -11 34 -24 34 -29
0 -14 -70 -70 -88 -70 -23 0 -42 19 -42 41 0 16 45 79 57 79 3 0 21 -9 39 -21z
m501 -39 c20 -18 45 -30 61 -30 56 0 67 -40 26 -89 -32 -38 -45 -38 -103 -3
-25 16 -54 31 -63 35 -10 3 -18 14 -18 24 0 18 46 93 57 93 3 0 21 -13 40 -30z
m333 7 c0 -18 39 -53 73 -66 15 -6 27 -15 27 -21 0 -18 -48 -60 -68 -60 -20 0
-85 44 -115 78 -22 24 -17 36 27 63 36 22 56 24 56 6z m-1070 -106 c0 -6 -5
-13 -11 -17 -7 -4 -9 -24 -6 -51 4 -40 2 -45 -19 -53 -24 -10 -74 2 -74 17 0
18 23 89 32 101 12 14 78 17 78 3z m610 -166 c36 -18 37 -26 9 -51 -30 -27
-50 -70 -58 -123 -5 -38 -10 -47 -29 -49 -43 -6 -70 41 -38 67 22 18 56 97 56
129 0 46 13 51 60 27z"/>
<path d="M5255 6064 c-39 -10 -75 -27 -75 -35 0 -4 8 -13 18 -18 10 -7 13 -14
7 -18 -5 -5 -11 -20 -12 -35 l-2 -28 70 0 c39 0 69 -4 69 -10 0 -5 -15 -10
-32 -10 -47 0 -108 -11 -108 -20 0 -4 23 -14 51 -23 101 -33 195 -14 225 45
l15 29 92 -6 c80 -6 206 -17 453 -42 54 -5 64 -3 83 16 28 28 28 75 -1 95 -29
21 -195 21 -373 1 -71 -8 -160 -15 -197 -15 -62 0 -68 2 -68 21 0 14 -11 25
-36 35 -37 16 -145 26 -179 18z m159 -35 c25 -7 40 -18 44 -31 5 -21 8 -21
206 -12 312 13 413 12 431 -7 19 -19 10 -48 -19 -58 -11 -4 -64 -2 -116 5 -52
7 -181 16 -287 20 l-192 7 -29 -31 c-34 -36 -100 -57 -151 -46 l-36 7 38 7
c44 8 63 23 51 41 -4 7 -8 31 -8 53 l-1 41 -79 -3 c-54 -2 -76 0 -71 7 8 14
168 14 219 0z m-94 -59 c0 -5 -11 -10 -24 -10 -13 0 -38 -3 -55 -6 -19 -4 -31
-2 -31 4 0 9 16 13 93 20 9 1 17 -2 17 -8z"/>
<path d="M10570 6057 c0 -21 12 -28 27 -16 19 16 16 29 -7 29 -11 0 -20 -6
-20 -13z"/>
<path d="M10677 6024 c-14 -15 -6 -34 14 -34 14 0 19 5 17 17 -3 18 -20 27
-31 17z"/>
<path d="M12131 5972 c-38 -19 -69 -69 -78 -128 -6 -34 -5 -37 13 -28 24 12
516 6 528 -7 18 -17 26 -9 25 24 -1 53 -23 101 -57 120 -22 13 -66 20 -164 27
-191 13 -229 12 -267 -8z m286 -21 c150 -8 164 -15 181 -84 13 -48 11 -52 -16
-38 -29 16 -416 26 -472 13 -24 -6 -46 -9 -48 -7 -7 6 37 92 54 105 20 18 72
27 124 23 25 -2 104 -7 177 -12z"/>
<path d="M10619 5924 c-25 -7 -58 -25 -72 -38 -26 -24 -27 -28 -20 -101 l6
-75 -27 14 c-15 7 -60 19 -100 27 -72 12 -74 13 -60 34 12 18 12 24 0 40 -12
17 -18 18 -40 7 -27 -12 -34 -40 -14 -60 9 -9 5 -14 -19 -23 -27 -9 -32 -16
-36 -52 -2 -23 -14 -78 -27 -122 -19 -65 -23 -106 -24 -215 -1 -128 1 -141 37
-262 20 -70 41 -151 46 -180 l9 -53 0 45 c1 25 -5 74 -13 110 -7 36 -12 66
-10 68 2 2 15 -4 29 -13 18 -12 36 -15 57 -11 23 4 30 3 26 -7 -37 -84 -57
-141 -62 -177 l-6 -45 19 55 c10 30 48 114 85 185 94 183 120 285 119 468 -1
135 9 178 23 95 9 -57 62 -170 116 -249 23 -35 86 -108 139 -164 52 -55 106
-113 118 -130 l23 -30 -23 44 c-13 24 -64 91 -115 148 -108 122 -152 187 -198
286 -36 78 -65 193 -65 255 l0 39 64 5 c44 4 80 14 112 32 25 14 48 26 50 26
5 0 21 -33 42 -86 l20 -49 -42 -2 c-68 -2 -120 -20 -161 -56 l-39 -34 28 -84
c49 -146 106 -234 177 -269 48 -25 64 -25 89 0 11 11 22 20 24 20 1 0 6 -35 9
-77 3 -43 13 -96 22 -118 12 -31 14 -33 10 -10 -3 17 -10 116 -15 220 -5 105
-12 201 -15 215 -32 123 -85 255 -135 335 -20 32 -25 35 -68 34 -26 0 -68 -7
-93 -15z m101 -13 c0 -13 -74 -41 -126 -48 -48 -6 -56 4 -21 27 38 26 147 41
147 21z m-392 -103 c-6 -18 -28 -21 -28 -4 0 9 7 16 16 16 9 0 14 -5 12 -12z
m155 -89 c15 -7 27 -16 27 -20 0 -35 -161 -46 -217 -16 -18 10 -33 22 -33 26
0 30 163 37 223 10z m307 15 c0 -8 -101 -51 -137 -58 -18 -3 -33 -2 -33 3 0
14 36 42 66 51 33 10 104 13 104 4z m66 -99 c21 -83 26 -277 7 -296 -18 -18
-60 -2 -109 43 -32 29 -60 72 -95 142 -27 56 -49 106 -49 112 0 7 21 15 48 19
55 8 136 41 153 62 16 19 21 9 45 -82z m-563 20 c41 -17 126 -20 173 -6 l32 9
4 -62 c3 -33 4 -64 2 -67 -2 -4 -30 3 -61 14 -40 14 -84 21 -139 21 l-82 1 14
45 c8 25 14 48 14 53 0 10 2 9 43 -8z m122 -116 c52 -13 74 -34 56 -52 -18
-18 -150 -14 -188 6 -34 18 -43 41 -20 50 22 10 108 7 152 -4z m-185 -46 c0
-5 -5 -15 -10 -23 -8 -12 -10 -11 -10 8 0 12 5 22 10 22 6 0 10 -3 10 -7z m50
-29 c26 -13 51 -16 119 -11 l86 5 -6 -71 c-4 -40 -19 -108 -35 -152 -64 -186
-172 -192 -203 -12 -16 93 -14 257 4 257 1 0 17 -7 35 -16z"/>
<path d="M10380 5890 c-17 -32 -5 -52 27 -48 24 3 28 8 28 33 0 38 -37 48 -55
15z m38 -12 c-6 -18 -28 -21 -28 -4 0 9 7 16 16 16 9 0 14 -5 12 -12z"/>
<path d="M8414 5803 c16 -8 45 -22 65 -30 33 -14 34 -14 21 3 -17 20 -71 44
-97 44 -13 -1 -9 -5 11 -17z"/>
<path d="M10442 5798 c2 -17 10 -23 28 -23 18 0 26 6 28 23 3 19 -1 22 -28 22
-27 0 -31 -3 -28 -22z"/>
<path d="M7692 5713 c2 -66 -1 -96 -10 -105 -11 -11 -12 -8 -7 14 10 38 -1 64
-19 49 -28 -23 -30 -111 -3 -111 5 0 25 18 44 40 19 22 40 40 46 40 6 0 -6
-17 -27 -39 -29 -29 -34 -40 -22 -44 8 -3 20 1 27 9 17 21 69 47 69 35 0 -6
-17 -22 -37 -36 -21 -14 -31 -25 -22 -25 24 0 84 44 84 60 0 8 -10 19 -22 25
-12 5 -24 18 -27 28 -3 11 -10 17 -18 14 -7 -3 -20 -8 -28 -11 -13 -5 -14 3
-12 53 2 33 -1 68 -7 78 -9 14 -11 -3 -9 -74z"/>
<path d="M7092 5680 c0 -63 3 -124 8 -135 11 -26 11 190 0 225 -5 16 -8 -18
-8 -90z"/>
<path d="M5236 5751 c-60 -40 -65 -83 -13 -127 27 -23 38 -26 87 -22 31 2 82
17 117 32 62 28 65 28 150 18 152 -19 405 -34 462 -28 58 7 91 27 91 57 0 79
-74 95 -279 59 -73 -13 -158 -20 -241 -20 -112 0 -136 3 -194 25 -80 30 -140
32 -180 6z m179 -21 c99 -28 358 -32 502 -6 111 20 163 13 183 -24 28 -52 -87
-62 -444 -39 l-174 11 -81 -27 c-91 -31 -134 -29 -170 9 -19 20 -21 28 -12 45
15 27 58 50 96 51 17 0 62 -9 100 -20z"/>
<path d="M7186 5761 c79 -34 301 -37 395 -6 l44 14 -40 -6 c-55 -9 -298 -9
-365 -1 -34 5 -47 4 -34 -1z"/>
<path d="M8305 5668 c-26 -15 -36 -30 -30 -47 3 -8 -4 -20 -15 -28 -17 -12
-19 -21 -14 -51 3 -20 13 -43 22 -49 19 -16 71 -17 92 -3 11 8 8 9 -12 4 -60
-14 -112 27 -53 42 13 3 30 13 36 21 11 13 8 14 -24 8 -23 -5 -37 -3 -37 3 0
11 53 32 81 32 11 0 19 5 19 10 0 6 -12 10 -27 10 -16 0 -34 4 -41 9 -22 14
16 35 62 34 33 0 36 1 16 7 -36 11 -52 11 -75 -2z"/>
<path d="M7844 5579 c-10 -12 -36 -35 -57 -51 -32 -26 -40 -28 -54 -17 -12 10
-15 10 -9 2 5 -9 1 -13 -11 -13 -27 0 -40 13 -38 36 1 20 1 20 -37 2 -44 -22
-79 -16 -121 19 -29 23 -47 23 -47 -1 0 -9 -31 -15 -113 -19 -129 -8 -267 -29
-294 -47 -17 -11 -17 -11 0 -6 81 25 297 37 321 17 39 -32 -4 -42 -67 -16 -20
8 -40 15 -44 15 -13 -1 38 -40 52 -40 7 0 15 -9 18 -20 3 -12 14 -20 26 -20
28 0 26 -14 -4 -30 -14 -7 -25 -19 -25 -27 0 -22 -170 -14 -275 13 -16 4 -17
3 -5 -5 33 -20 199 -44 323 -45 70 0 127 -2 127 -4 0 -2 -13 -17 -30 -32 -31
-29 -40 -70 -16 -70 8 0 18 5 21 10 10 17 21 11 32 -17 l11 -28 1 33 c1 45 25
98 49 111 28 15 30 14 34 -11 6 -47 78 -30 78 18 0 15 6 24 16 24 8 0 13 4 9
10 -5 8 27 50 39 50 2 0 6 -14 10 -31 4 -19 13 -33 26 -36 18 -5 20 -14 21
-87 1 -44 5 -94 9 -111 5 -18 8 27 7 113 l-2 142 31 -6 c18 -3 34 -2 37 3 8
13 -21 53 -39 53 -8 0 -14 5 -14 10 0 6 9 10 21 10 28 0 21 34 -9 38 -20 3
-32 22 -14 22 10 0 35 50 29 56 -2 2 -12 -5 -23 -17z m-257 -82 c4 -6 0 -8
-10 -4 -10 3 -17 2 -17 -3 0 -5 -7 -7 -15 -4 -8 4 -15 10 -15 14 0 11 49 9 57
-3z m-77 -18 c12 -7 11 -8 -5 -9 -31 0 -65 11 -65 21 0 10 45 2 70 -12z m104
6 c-4 -8 -10 -15 -15 -15 -4 0 -6 7 -3 15 4 8 10 15 15 15 4 0 6 -7 3 -15z
m136 -10 c0 -14 -31 -65 -40 -65 -17 0 -21 20 -6 26 8 3 18 14 21 25 6 17 25
28 25 14z m45 -15 c3 -5 2 -10 -4 -10 -5 0 -13 5 -16 10 -3 6 -2 10 4 10 5 0
13 -4 16 -10z m-248 -16 c2 -7 -23 -10 -79 -9 -95 2 -100 3 -73 15 28 12 148
8 152 -6z m309 -5 c3 -5 1 -9 -5 -9 -17 0 -41 12 -41 20 0 10 38 1 46 -11z
m-178 -29 c7 0 12 -5 12 -11 0 -7 -10 -9 -27 -4 -37 9 -53 23 -46 41 5 13 9
12 27 -5 12 -12 28 -21 34 -21z m112 8 c23 -37 25 -48 9 -48 -8 0 -39 58 -39
75 0 13 12 2 30 -27z m-200 -9 c0 -5 -4 -9 -10 -9 -5 0 -10 7 -10 16 0 8 5 12
10 9 6 -3 10 -10 10 -16z m-118 -23 c3 -31 1 -35 -26 -40 -38 -8 -47 2 -18 21
12 9 22 19 22 24 0 5 -11 2 -25 -7 -13 -9 -30 -14 -36 -12 -13 4 47 46 67 47
7 1 14 -14 16 -33z m15 -8 c-3 -8 -6 -5 -6 6 -1 11 2 17 5 13 3 -3 4 -12 1
-19z m88 -17 c-8 -13 -45 -15 -45 -2 0 5 10 11 23 13 27 5 31 3 22 -11z m-55
-71 c-12 -16 -26 -30 -31 -30 -6 0 -1 14 11 30 12 17 26 30 31 30 6 0 1 -13
-11 -30z"/>
<path d="M3242 5574 c-14 -10 -22 -25 -22 -45 0 -28 -2 -29 -45 -29 l-45 0 1
-42 c1 -37 2 -39 8 -14 l6 28 143 2 c127 1 142 -1 142 -16 0 -9 5 -20 12 -24
8 -5 9 0 5 17 -4 13 -7 30 -7 37 0 7 -15 12 -40 12 -34 0 -41 4 -46 25 -7 28
-48 65 -73 65 -9 0 -27 -7 -39 -16z m78 -34 c32 -32 24 -40 -35 -40 -59 0 -70
13 -39 44 21 22 50 20 74 -4z"/>
<path d="M6375 5513 c-3 -14 -20 -46 -36 -70 -37 -53 -68 -121 -85 -188 -18
-68 -18 -282 1 -370 8 -38 15 -72 15 -74 0 -2 -8 0 -17 3 -12 4 -9 -2 8 -17
23 -20 25 -26 18 -64 -14 -78 -29 -303 -22 -350 9 -73 29 -105 61 -101 22 2
30 11 41 48 12 38 13 79 4 254 -10 192 -10 211 5 223 16 11 15 12 -2 13 -18 0
-19 8 -13 209 8 250 25 438 42 466 11 16 11 22 0 32 -10 10 -14 7 -20 -14z
m-19 -125 c-17 -117 -26 -253 -27 -403 0 -91 -5 -167 -10 -171 -5 -3 -10 7
-10 23 -1 17 -3 21 -6 11 -2 -10 -8 -18 -13 -18 -14 0 -21 42 -27 175 -4 101
-2 149 11 215 16 79 67 210 82 210 3 0 3 -19 0 -42z m-26 -642 c0 -24 7 -110
16 -192 19 -185 10 -264 -31 -264 -22 0 -35 50 -35 131 0 106 20 323 30 327 4
2 6 12 3 22 -3 11 0 20 6 20 6 0 11 -18 11 -44z"/>
<path d="M4836 5450 c-2 -8 -11 -37 -20 -64 -35 -109 -10 -235 55 -273 17 -10
29 -26 29 -38 0 -62 -22 -372 -36 -510 -23 -229 -20 -258 31 -271 46 -11 73 3
84 44 15 52 13 221 -4 397 -8 83 -15 200 -15 262 0 108 1 112 23 115 65 9 79
334 14 346 -15 3 -17 -6 -17 -79 0 -45 -2 -80 -4 -78 -4 4 -14 98 -15 149 -1
10 -4 11 -13 2 -7 -7 -10 -41 -9 -89 2 -96 -14 -80 -22 22 -3 39 -6 71 -6 73
-1 2 -5 0 -11 -3 -5 -3 -10 -42 -10 -85 0 -77 -12 -111 -24 -67 -3 12 -6 47
-6 77 0 57 -14 99 -24 70z m179 -68 c7 -71 -7 -209 -25 -243 -6 -10 -17 -19
-25 -19 -24 0 -27 -113 -12 -385 20 -331 12 -424 -35 -425 -5 0 -18 10 -29 21
-19 19 -21 29 -15 83 3 33 11 102 16 151 5 50 12 189 16 310 l7 220 -36 37
c-44 47 -62 114 -51 195 l8 58 8 -54 c9 -59 24 -85 41 -74 6 4 34 7 62 7 l50
1 -3 93 c-4 108 13 125 23 24z"/>
<path d="M6464 5445 c-61 -42 -69 -141 -23 -278 l32 -92 -12 -120 c-19 -203
-33 -507 -26 -570 3 -33 13 -70 21 -82 19 -30 55 -29 85 3 32 34 37 134 14
280 -9 60 -20 199 -25 309 -6 186 -7 191 -9 75 -4 -224 -2 -303 15 -422 18
-131 14 -194 -18 -227 -57 -62 -68 51 -48 495 l12 270 -26 95 c-31 111 -32
140 -7 195 24 53 37 61 63 37 49 -43 59 -116 32 -234 -22 -97 -11 -98 15 -1
35 131 24 214 -34 260 -33 26 -35 26 -61 7z"/>
<path d="M8288 5434 c-16 -8 -28 -17 -28 -19 0 -7 62 7 95 21 l30 13 -35 0
c-19 0 -47 -7 -62 -15z"/>
<path d="M5501 5425 c-143 -40 -282 -156 -344 -286 -41 -87 -57 -155 -57 -247
0 -184 99 -362 255 -461 35 -23 71 -41 78 -41 8 0 29 -8 47 -17 51 -25 217
-30 300 -9 210 53 361 211 406 426 19 88 14 177 -16 271 -20 65 -91 191 -97
172 -2 -5 12 -33 31 -61 138 -206 98 -493 -94 -665 -206 -185 -520 -182 -719
6 -106 101 -161 230 -161 376 0 159 42 263 151 373 162 164 384 202 613 103
14 -6 18 -5 14 5 -2 7 -33 25 -69 38 -82 32 -254 40 -338 17z"/>
<path d="M6960 5395 c-6 -61 2 -250 11 -259 5 -6 9 26 8 80 -1 101 -14 226
-19 179z"/>
<path d="M8291 5350 c-24 -11 -42 -23 -39 -25 6 -6 138 33 138 40 0 12 -59 3
-99 -15z"/>
<path d="M5502 5353 c-12 -2 -20 -9 -17 -14 10 -14 42 -11 49 6 3 8 2 14 -2
14 -4 -1 -17 -4 -30 -6z"/>
<path d="M5970 5333 c1 -13 48 -63 60 -63 5 0 10 3 9 8 -1 10 -69 66 -69 55z"/>
<path d="M5350 5276 c-87 -67 -135 -140 -145 -217 l-6 -44 18 40 c37 82 58
112 126 182 39 40 68 75 66 78 -3 2 -29 -15 -59 -39z"/>
<path d="M1153 5130 c-57 -175 -78 -250 -68 -250 7 0 64 157 100 278 58 196
35 175 -32 -28z"/>
<path d="M5560 5207 c-239 -67 -315 -380 -133 -548 68 -62 123 -84 218 -84 71
0 88 4 147 33 185 91 236 320 109 488 -72 95 -223 144 -341 111z m213 -36
c106 -46 187 -163 187 -272 0 -77 -24 -140 -76 -198 -64 -72 -139 -106 -229
-106 -94 1 -160 30 -225 102 -106 116 -107 277 -4 393 94 104 223 134 347 81z"/>
<path d="M5587 5170 c-132 -33 -217 -141 -217 -276 0 -186 177 -321 353 -270
74 21 133 69 171 136 28 49 31 64 31 135 0 86 -16 129 -70 193 -53 64 -182
103 -268 82z m173 -41 c130 -59 193 -204 140 -327 -25 -58 -92 -125 -148 -149
-46 -20 -134 -21 -186 -4 -49 17 -121 82 -149 136 -29 56 -29 164 0 221 25 47
91 110 137 130 48 20 153 17 206 -7z"/>
<path d="M5436 4968 c-22 -35 -29 -90 -17 -136 15 -54 81 -113 125 -111 22 1
25 3 9 6 -12 2 -42 26 -67 53 -44 47 -46 52 -46 107 0 37 6 67 16 81 8 12 10
22 5 22 -6 0 -17 -10 -25 -22z"/>
<path d="M1670 5124 c-71 -77 -94 -140 -98 -271 -3 -65 1 -142 9 -185 l13 -73
8 75 c14 125 29 210 39 210 5 0 9 -12 9 -27 0 -58 23 -253 30 -253 4 0 11 35
14 78 10 106 27 202 36 202 4 0 10 -31 14 -70 3 -38 9 -101 12 -140 4 -38 10
-70 14 -70 4 0 12 52 19 115 6 63 17 127 23 142 11 28 11 28 19 -17 4 -25 8
-72 9 -105 1 -33 5 -78 9 -100 6 -29 9 -1 10 101 1 163 -8 225 -48 309 -27 59
-75 125 -91 125 -4 0 -26 -21 -50 -46z m85 -14 c31 -50 49 -94 35 -85 -6 4
-22 29 -35 56 -14 27 -30 49 -35 49 -6 0 -10 5 -10 10 0 22 21 8 45 -30z m-18
-67 c-15 -15 -17 -14 -28 10 -6 14 -9 33 -5 43 5 14 9 13 27 -11 20 -24 20
-28 6 -42z m-52 18 c-3 -12 -15 -21 -26 -21 -19 0 -19 1 -3 31 17 35 41 27 29
-10z m-41 -91 c-8 -35 -45 -112 -51 -106 -6 6 12 90 27 131 9 23 13 26 20 15
5 -8 7 -26 4 -40z m36 35 c0 -8 5 -15 11 -15 6 0 9 -8 7 -17 -6 -32 -33 -20
-36 15 -2 18 1 32 7 32 6 0 11 -7 11 -15z m54 -1 c7 -19 -2 -37 -15 -29 -12 8
-12 45 0 45 5 0 12 -7 15 -16z m46 -9 c10 -18 11 -28 3 -36 -17 -17 -33 -1
-33 32 0 36 12 37 30 4z m-70 -90 c-11 -22 -20 -48 -21 -60 0 -20 0 -20 -8 0
-4 11 -11 34 -14 51 -5 27 -3 31 26 40 18 5 33 9 34 9 2 -1 -6 -19 -17 -40z
m102 23 c-5 -7 -16 -33 -23 -57 l-13 -44 -13 49 c-6 26 -11 49 -10 49 63 23
77 24 59 3z"/>
<path d="M8678 5143 c-14 -16 -40 -50 -57 -77 -34 -55 -43 -38 -16 28 19 44
12 48 -10 5 -28 -53 -39 -169 -16 -169 3 0 14 21 23 48 17 44 58 120 94 170
22 30 13 28 -18 -5z"/>
<path d="M9174 5086 c19 -32 43 -81 51 -107 20 -60 35 -55 35 10 0 55 -19 108
-48 134 -17 15 -16 11 5 -32 32 -64 25 -88 -9 -30 -14 24 -36 53 -47 63 -16
14 -12 4 13 -38z"/>
<path d="M9080 5079 c-12 -23 -25 -69 -28 -102 l-5 -59 -83 4 c-70 2 -79 1
-61 -10 41 -23 203 -5 165 19 -7 4 -1 39 15 95 14 49 24 91 22 92 -2 2 -13
-15 -25 -39z"/>
<path d="M8879 5073 c-13 -16 -12 -17 4 -4 16 13 21 21 13 21 -2 0 -10 -8 -17
-17z"/>
<path d="M10957 5058 c3 -25 2 -30 -6 -18 -32 45 2 -98 60 -257 l42 -112 -32
-30 c-31 -29 -42 -73 -21 -86 5 -3 31 -8 57 -11 60 -7 127 25 161 76 l23 35
-21 17 c-14 12 -39 18 -70 18 l-48 0 -30 78 c-35 87 -102 292 -102 310 0 7 -4
12 -8 12 -5 0 -7 -15 -5 -32z m156 -402 c20 -22 25 -25 18 -9 -14 27 -3 35 38
27 43 -9 47 -21 20 -51 -35 -37 -72 -53 -124 -53 -53 0 -68 19 -40 50 22 25
32 25 39 3 3 -10 4 9 2 42 -4 49 -2 56 7 41 7 -11 25 -33 40 -50z"/>
<path d="M6900 5013 c0 -7 17 -30 38 -51 66 -70 212 -98 462 -87 261 10 424
40 464 83 14 17 10 16 -31 -5 -65 -31 -131 -41 -368 -54 -335 -17 -490 9 -544
93 -11 18 -21 28 -21 21z"/>
<path d="M7764 4994 c-54 -37 -603 -46 -689 -10 -33 13 -37 13 -20 1 35 -27
87 -36 255 -42 229 -8 440 15 470 52 15 19 11 18 -16 -1z"/>
<path d="M1426 4939 c-27 -22 -35 -42 -13 -33 10 4 12 -8 9 -54 -3 -45 0 -61
12 -71 13 -11 19 -11 31 -1 12 10 14 26 9 73 -5 52 -4 59 10 54 13 -5 13 -2 4
18 -15 33 -33 37 -62 14z m36 -109 c4 -24 1 -30 -14 -30 -20 0 -21 4 -12 38 9
31 21 28 26 -8z"/>
<path d="M1975 4934 c-27 -29 -35 -54 -10 -34 13 11 15 5 15 -43 0 -82 13
-104 43 -75 9 8 12 31 9 71 -4 46 -2 58 8 52 22 -14 6 27 -17 42 -20 14 -24
13 -48 -13z m44 -121 c1 -7 -6 -13 -14 -13 -16 0 -19 17 -8 46 6 16 7 16 14
-2 4 -10 8 -25 8 -31z"/>
<path d="M6939 4927 c43 -46 116 -75 236 -93 108 -17 323 -18 432 -3 99 13
219 53 258 85 27 22 24 22 -30 -6 -92 -47 -177 -61 -380 -65 -297 -6 -429 17
-513 88 l-37 31 34 -37z"/>
<path d="M8822 4803 c-2 -104 0 -113 22 -140 l24 -28 -14 -140 c-7 -76 -12
-140 -10 -142 9 -9 29 102 33 188 l6 96 27 -10 c26 -10 64 -4 115 19 6 2 16
-28 23 -74 7 -43 19 -98 27 -123 l15 -44 -6 60 c-3 33 -14 92 -24 132 -17 65
-18 75 -4 102 18 35 38 152 31 178 -3 11 -5 5 -6 -12 -2 -40 -24 -123 -44
-161 -9 -17 -33 -39 -53 -49 -34 -16 -39 -16 -79 0 -24 9 -49 23 -56 32 -8 9
-16 58 -19 121 l-7 107 -1 -112z"/>
<path d="M10262 4808 c-13 -53 -29 -174 -38 -291 l-6 -87 -41 -7 c-23 -3 -52
-17 -64 -29 -23 -23 -23 -25 -8 -54 43 -83 189 -104 263 -37 44 41 20 91 -56
112 l-37 11 3 85 c1 46 8 134 15 196 7 61 9 110 5 107 -4 -3 -8 -11 -8 -19 0
-8 -5 -17 -10 -20 -7 -4 -8 8 -4 34 9 54 -1 53 -14 -1z m-2 -382 c0 -13 9 -34
21 -47 19 -23 20 -23 10 -2 -15 30 -1 35 40 15 78 -39 17 -107 -89 -99 -53 4
-95 26 -116 61 -9 14 -6 21 13 37 13 10 36 19 52 19 27 0 29 -2 24 -27 -5 -20
-3 -24 3 -13 5 8 12 32 16 53 7 40 26 42 26 3z"/>
<path d="M1116 4788 c-20 -28 -21 -44 -2 -29 12 10 13 3 9 -46 -4 -46 -2 -61
11 -72 13 -11 19 -11 32 0 12 10 15 26 12 71 -3 45 -1 58 8 54 10 -4 11 0 2
19 -14 32 -51 33 -72 3z m46 -98 c4 -25 1 -30 -15 -30 -13 0 -17 5 -13 16 3 9
6 22 6 30 0 27 18 14 22 -16z"/>
<path d="M7577 4797 c-8 -21 -263 -30 -294 -11 -14 9 -23 10 -23 4 0 -6 11
-15 24 -21 20 -10 24 -20 29 -83 8 -91 30 -190 35 -158 2 12 -2 53 -8 90 -6
37 -14 84 -17 105 l-6 37 116 0 c98 0 118 3 138 19 13 11 21 22 18 26 -4 3 -9
0 -12 -8z"/>
<path d="M6098 4729 c-16 -28 -16 -29 1 -29 22 0 35 25 23 45 -5 10 -12 6 -24
-16z"/>
<path d="M7511 4700 c-17 -80 -33 -191 -28 -196 7 -7 35 113 43 184 8 75 0 81
-15 12z"/>
<path d="M11541 4721 c-50 -92 -67 -224 -33 -254 20 -18 49 -22 69 -9 6 4 20
32 31 62 11 30 28 76 38 102 17 43 17 47 1 72 -13 20 -26 26 -51 26 -19 0 -36
6 -38 12 -3 8 -10 4 -17 -11z m98 -46 c13 -13 12 -17 -3 -34 -20 -22 -56 -112
-56 -141 0 -16 -7 -20 -30 -20 -49 0 -57 33 -30 116 34 104 37 107 73 100 18
-4 38 -13 46 -21z"/>
<path d="M2423 4693 c-7 -2 -13 -9 -13 -14 0 -6 8 -6 19 1 26 14 49 3 66 -31
22 -42 19 -84 -7 -101 l-22 -15 23 -13 c19 -10 25 -10 32 1 6 10 10 10 23 0
20 -17 20 -34 0 -74 l-15 -32 25 28 c33 36 33 71 0 102 -14 13 -23 29 -19 34
11 18 -15 90 -38 106 -21 15 -50 18 -74 8z"/>
<path d="M7406 4639 c-9 -48 -7 -117 4 -124 6 -4 10 23 10 74 0 45 -2 81 -4
81 -2 0 -6 -14 -10 -31z"/>
<path d="M6022 4596 c-59 -82 -205 -166 -287 -166 -19 0 -35 -5 -35 -11 0 -18
118 -1 176 25 64 29 127 86 161 143 34 59 24 64 -15 9z"/>
<path d="M9001 4575 c-1 -50 26 -225 36 -235 8 -8 -7 146 -22 220 l-13 65 -1
-50z"/>
<path d="M8908 4551 c-5 -35 -8 -103 -7 -150 1 -76 2 -81 10 -46 5 22 8 89 7
150 -3 105 -3 107 -10 46z"/>
<path d="M12201 4593 c-1 -23 33 -53 59 -53 9 0 25 7 36 16 18 15 18 15 -5 10
-26 -5 -76 16 -84 36 -3 7 -6 3 -6 -9z"/>
<path d="M8956 4520 c10 -137 24 -183 20 -65 -2 55 -9 111 -15 125 -9 20 -10
7 -5 -60z"/>
<path d="M1730 4540 c-154 -5 -174 -18 -42 -27 79 -6 192 11 192 28 0 5 -1 8
-2 7 -2 -1 -68 -5 -148 -8z"/>
<path d="M2141 4532 c-14 -10 -23 -29 -23 -49 -1 -27 -4 -31 -27 -30 -32 2
-41 -32 -17 -68 19 -29 20 -56 4 -74 -11 -11 -10 -13 1 -9 26 8 37 35 25 65
-28 69 -28 69 -13 56 7 -7 21 -13 31 -13 15 0 18 8 18 43 0 30 6 49 18 60 27
25 40 21 57 -15 l15 -33 -6 30 c-11 56 -42 71 -83 37z"/>
<path d="M7209 4517 c-51 -34 -65 -71 -48 -121 8 -23 17 -40 21 -39 4 1 25 -5
45 -14 47 -20 259 -29 323 -15 53 13 65 8 24 -10 -18 -7 -80 -12 -164 -13
-118 0 -140 3 -177 21 -24 12 -43 18 -43 14 0 -5 21 -19 48 -32 41 -20 61 -23
167 -23 108 0 125 2 170 25 41 21 53 33 69 71 17 44 18 48 1 82 -9 20 -29 44
-43 53 -25 16 -25 15 6 -20 55 -63 37 -122 -45 -145 -48 -14 -214 -14 -284 -1
-70 13 -103 38 -107 79 -4 36 14 62 63 92 17 11 25 19 19 19 -6 0 -26 -10 -45
-23z"/>
<path d="M2287 4524 c-4 -4 -7 -25 -7 -46 0 -36 -1 -38 -33 -38 -18 0 -38 -5
-45 -12 -15 -15 -16 -55 -1 -64 7 -4 9 0 5 12 -3 11 -2 25 3 33 12 19 83 20
98 1 11 -13 16 -13 43 3 48 26 73 23 69 -9 -2 -15 26 -21 47 -12 27 13 54 4
54 -16 0 -8 -21 -33 -47 -56 -38 -34 -42 -39 -18 -27 42 21 85 66 85 88 0 21
-28 39 -62 39 -13 0 -31 9 -41 20 -18 22 -48 26 -76 11 -16 -9 -18 -5 -17 32
1 38 -2 42 -24 45 -14 2 -29 0 -33 -4z m33 -44 c0 -16 -4 -30 -10 -30 -11 0
-14 43 -3 53 11 12 13 8 13 -23z"/>
<path d="M1163 4450 c-12 -5 -27 -18 -33 -29 -6 -12 -21 -21 -34 -21 -28 0
-40 -24 -26 -51 15 -27 22 -24 14 6 -5 22 -3 25 20 25 14 0 35 11 48 24 45 46
111 34 80 -15 -10 -16 -8 -17 23 -12 34 5 41 -1 36 -30 -1 -5 3 -6 9 -2 5 3
10 17 10 31 0 19 -5 24 -25 24 -18 0 -25 5 -25 20 0 34 -49 49 -97 30z"/>
<path d="M1813 4415 c-19 -13 -26 -13 -43 -3 -27 17 -52 1 -65 -40 -9 -31 -11
-32 -66 -32 -63 0 -109 -13 -109 -31 0 -8 4 -8 15 1 10 8 42 11 97 9 l83 -4 3
30 c5 43 18 52 40 25 l18 -23 31 33 c27 29 34 32 47 21 21 -18 20 -48 -1 -60
-10 -6 -13 -11 -6 -11 18 0 43 29 43 50 0 19 -35 50 -55 50 -6 0 -20 -7 -32
-15z"/>
<path d="M1521 2667 c-9 -11 -10 -17 -2 -17 7 0 11 -20 11 -50 0 -36 -5 -52
-17 -59 -15 -9 -12 -10 17 -11 20 0 30 4 23 8 -7 4 -13 37 -15 76 -3 60 -5 67
-17 53z"/>
<path d="M1626 2661 c-17 -18 -17 -21 -3 -15 15 5 17 -1 17 -49 0 -44 -3 -56
-17 -60 -10 -3 -3 -5 16 -6 26 -1 31 2 23 12 -6 7 -12 41 -14 76 l-3 63 -19
-21z"/>
<path d="M1906 2658 c-28 -40 -13 -128 22 -128 3 0 1 5 -6 12 -7 7 -12 35 -12
63 0 28 5 56 12 63 7 7 9 12 6 12 -4 0 -14 -10 -22 -22z"/>
<path d="M3481 2667 c-7 -10 -10 -17 -5 -17 15 0 8 -101 -7 -111 -10 -6 -3 -9
21 -9 20 0 30 4 23 8 -7 4 -13 37 -15 76 -3 60 -5 67 -17 53z"/>
<path d="M3578 2669 c-10 -5 -18 -15 -18 -20 0 -6 7 -3 16 5 21 21 31 20 44
-4 13 -23 4 -44 -34 -79 -14 -14 -26 -28 -26 -32 0 -11 79 -9 86 2 3 5 -11 9
-32 9 l-36 0 36 40 c42 47 43 54 14 74 -26 19 -27 19 -50 5z"/>
<path d="M5491 2667 c-9 -11 -10 -17 -2 -17 7 0 11 -20 11 -50 0 -36 -5 -52
-17 -59 -15 -9 -12 -10 17 -11 20 0 30 4 23 8 -7 4 -13 37 -15 76 -3 60 -5 67
-17 53z"/>
<path d="M5614 2664 c12 -12 13 -20 6 -35 -7 -12 -7 -19 -1 -19 16 0 23 -40
10 -56 -8 -10 -21 -13 -38 -9 -20 5 -23 4 -14 -6 16 -16 60 -3 73 22 9 16 8
26 -4 44 -9 13 -13 31 -9 40 3 10 0 21 -8 26 -23 14 -32 10 -15 -7z"/>
<path d="M7175 2660 c-16 -18 -17 -20 -2 -14 15 5 17 -1 17 -49 0 -35 -5 -57
-12 -60 -7 -3 2 -6 21 -6 32 -1 33 0 16 12 -14 11 -17 23 -13 65 6 63 -2 79
-27 52z"/>
<path d="M7306 2666 c16 -12 17 -18 7 -35 -10 -16 -9 -20 4 -25 10 -4 14 -15
11 -36 -4 -24 -2 -27 9 -19 17 15 17 44 -2 59 -11 9 -12 17 -5 31 8 14 6 20
-9 29 -29 15 -38 12 -15 -4z"/>
<path d="M8806 2671 c-5 -8 -8 -39 -7 -69 2 -33 -2 -58 -9 -62 -6 -4 4 -7 22
-8 17 0 27 2 21 6 -7 4 -13 38 -15 77 -2 48 -6 65 -12 56z"/>
<path d="M8889 2663 c-13 -16 -12 -17 4 -4 25 20 47 -1 30 -28 -10 -16 -9 -20
3 -25 10 -4 14 -16 12 -33 -3 -25 -7 -28 -35 -27 -18 1 -30 -2 -27 -7 9 -15
50 -10 67 9 21 23 22 58 2 66 -13 5 -13 9 -3 26 11 17 10 22 -2 30 -22 14 -36
12 -51 -7z"/>
<path d="M10456 2661 c-17 -18 -17 -21 -3 -15 15 5 17 -2 17 -55 0 -50 3 -61
16 -61 12 0 14 3 6 13 -6 7 -12 41 -14 76 l-3 63 -19 -21z"/>
<path d="M10584 2667 c15 -11 16 -18 7 -34 -8 -17 -7 -22 5 -27 12 -5 15 -14
10 -37 -5 -27 -4 -30 9 -19 19 16 19 44 0 60 -10 8 -12 17 -5 30 10 19 -5 40
-29 40 -11 0 -11 -3 3 -13z"/>
<path d="M10736 2658 c-21 -29 -20 -92 0 -112 20 -21 30 -21 14 -1 -16 20 -16
101 0 120 7 8 10 15 7 15 -3 0 -13 -10 -21 -22z"/>
<path d="M10893 2666 c12 -16 8 -111 -5 -124 -7 -7 -9 -12 -6 -12 36 0 51 94
21 127 -10 10 -15 14 -10 9z"/>
<path d="M12116 2671 c-5 -8 -8 -39 -7 -69 2 -37 -2 -58 -11 -63 -8 -6 -1 -9
22 -9 20 0 30 4 23 8 -7 4 -13 37 -15 77 -2 48 -6 65 -12 56z"/>
<path d="M12230 2665 c7 -8 10 -24 7 -35 -3 -11 -2 -20 3 -20 14 0 20 -31 9
-51 -8 -16 -17 -19 -42 -14 -27 5 -29 4 -14 -5 24 -16 64 -5 77 21 9 16 8 26
-4 44 -9 13 -13 31 -9 40 3 10 0 21 -8 26 -22 14 -33 10 -19 -6z"/>
<path d="M1784 2648 c-11 -36 -6 -90 10 -107 13 -13 14 -10 4 22 -8 27 -8 47
-1 72 6 19 7 35 3 35 -5 0 -12 -10 -16 -22z"/>
<path d="M1848 2624 c2 -31 -1 -60 -9 -75 -11 -22 -11 -23 4 -11 24 20 30 65
14 103 l-14 34 5 -51z"/>
<path d="M1958 2615 c3 -34 -1 -61 -8 -70 -17 -20 -6 -19 14 1 19 19 21 83 4
107 -11 15 -12 8 -10 -38z"/>
<path d="M3742 2636 c-11 -39 -5 -81 13 -96 10 -8 10 -2 2 30 -8 29 -8 49 0
70 6 17 7 30 3 30 -5 0 -13 -15 -18 -34z"/>
<path d="M3807 2624 c3 -32 1 -60 -7 -75 -12 -22 -12 -23 3 -11 24 20 30 65
13 103 l-14 34 5 -51z"/>
<path d="M3862 2658 c-13 -13 -16 -75 -6 -102 10 -27 23 -18 15 11 -4 16 -4
45 -1 65 8 43 8 42 -8 26z"/>
<path d="M3918 2615 c2 -30 1 -61 -4 -68 -5 -7 -1 -4 10 7 13 16 17 30 13 60
-9 62 -24 64 -19 1z"/>
<path d="M5751 2635 c-13 -48 4 -105 31 -105 5 0 2 7 -6 16 -18 18 -21 76 -6
105 7 12 7 19 1 19 -6 0 -14 -16 -20 -35z"/>
<path d="M5817 2624 c3 -32 1 -60 -7 -75 -12 -21 -12 -23 2 -11 23 19 30 68
14 105 -14 32 -14 32 -9 -19z"/>
<path d="M5870 2651 c-15 -29 -12 -87 6 -105 19 -20 31 -21 14 -1 -12 15 -16
97 -5 115 3 5 4 10 1 10 -3 0 -10 -9 -16 -19z"/>
<path d="M5928 2615 c2 -30 1 -61 -4 -68 -5 -7 -1 -4 10 7 13 16 17 30 13 60
-9 62 -24 64 -19 1z"/>
<path d="M7450 2651 c-15 -29 -12 -87 6 -105 20 -20 31 -21 14 -1 -7 9 -11 36
-8 70 1 30 2 55 1 55 -1 0 -7 -9 -13 -19z"/>
<path d="M7508 2615 c3 -34 -1 -61 -8 -71 -11 -12 -10 -13 3 -9 27 11 37 88
15 118 -11 15 -12 8 -10 -38z"/>
<path d="M7559 2643 c-13 -34 -4 -87 18 -104 15 -13 15 -12 4 10 -8 14 -11 43
-9 72 6 56 2 61 -13 22z"/>
<path d="M7623 2635 c7 -25 7 -45 -1 -72 -10 -34 -10 -36 3 -19 22 30 18 126
-5 126 -5 0 -3 -16 3 -35z"/>
<path d="M9060 2644 c-15 -38 -12 -69 8 -91 9 -10 13 -13 8 -6 -5 7 -6 38 -4
68 5 61 2 68 -12 29z"/>
<path d="M9118 2614 c3 -33 -1 -60 -8 -69 -8 -10 -9 -15 -2 -15 29 0 45 107
20 128 -10 8 -12 -1 -10 -44z"/>
<path d="M9171 2640 c-12 -37 -5 -85 17 -102 13 -11 14 -10 4 9 -15 27 -15 78
-2 104 6 11 7 19 1 19 -5 0 -14 -14 -20 -30z"/>
<path d="M9230 2651 c13 -26 13 -77 -2 -104 -10 -19 -9 -20 4 -9 29 24 26 132
-3 132 -6 0 -5 -8 1 -19z"/>
<path d="M10788 2615 c2 -30 1 -61 -4 -68 -5 -7 -1 -4 10 7 13 16 17 30 13 60
-9 62 -24 64 -19 1z"/>
<path d="M10840 2651 c-15 -30 -12 -77 8 -98 9 -10 13 -13 9 -6 -5 7 -7 37 -5
68 1 30 2 55 1 55 -1 0 -7 -9 -13 -19z"/>
<path d="M12371 2640 c-12 -37 -5 -85 17 -102 13 -11 14 -10 4 9 -15 27 -15
78 -2 104 6 11 7 19 1 19 -5 0 -14 -14 -20 -30z"/>
<path d="M12430 2651 c13 -26 13 -77 -2 -104 -10 -19 -9 -20 4 -9 9 7 18 26
21 42 7 32 -9 90 -24 90 -6 0 -5 -8 1 -19z"/>
<path d="M12490 2651 c-15 -29 -12 -87 6 -105 20 -20 31 -21 14 -1 -7 9 -11
36 -8 70 1 30 2 55 1 55 -1 0 -7 -9 -13 -19z"/>
<path d="M12548 2616 c2 -31 1 -62 -4 -69 -5 -7 -1 -4 9 6 20 23 22 76 4 102
-12 16 -13 11 -9 -39z"/>
<path d="M1720 2615 c0 -9 5 -15 11 -13 6 2 11 8 11 13 0 5 -5 11 -11 13 -6 2
-11 -4 -11 -13z"/>
<path d="M3680 2615 c0 -9 5 -15 11 -13 6 2 11 8 11 13 0 5 -5 11 -11 13 -6 2
-11 -4 -11 -13z"/>
<path d="M5690 2615 c0 -9 5 -15 11 -13 6 2 11 8 11 13 0 5 -5 11 -11 13 -6 2
-11 -4 -11 -13z"/>
<path d="M7387 2624 c-8 -8 1 -24 14 -24 5 0 9 7 9 15 0 15 -12 20 -23 9z"/>
<path d="M8997 2624 c-8 -8 1 -24 14 -24 5 0 9 7 9 15 0 15 -12 20 -23 9z"/>
<path d="M10660 2615 c0 -9 5 -15 11 -13 6 2 11 8 11 13 0 5 -5 11 -11 13 -6
2 -11 -4 -11 -13z"/>
<path d="M12310 2615 c0 -9 5 -15 11 -13 6 2 11 8 11 13 0 5 -5 11 -11 13 -6
2 -11 -4 -11 -13z"/>
<path d="M1720 2545 c0 -9 5 -15 11 -13 6 2 11 8 11 13 0 5 -5 11 -11 13 -6 2
-11 -4 -11 -13z"/>
<path d="M3680 2545 c0 -9 5 -15 11 -13 6 2 11 8 11 13 0 5 -5 11 -11 13 -6 2
-11 -4 -11 -13z"/>
<path d="M5690 2545 c0 -9 5 -15 11 -13 6 2 11 8 11 13 0 5 -5 11 -11 13 -6 2
-11 -4 -11 -13z"/>
<path d="M7387 2554 c-8 -8 1 -24 14 -24 5 0 9 7 9 15 0 15 -12 20 -23 9z"/>
<path d="M8997 2554 c-8 -8 1 -24 14 -24 5 0 9 7 9 15 0 15 -12 20 -23 9z"/>
<path d="M10660 2545 c0 -9 5 -15 11 -13 6 2 11 8 11 13 0 5 -5 11 -11 13 -6
2 -11 -4 -11 -13z"/>
<path d="M12310 2545 c0 -9 5 -15 11 -13 6 2 11 8 11 13 0 5 -5 11 -11 13 -6
2 -11 -4 -11 -13z"/>
<path d="M7265 2540 c3 -5 16 -10 28 -9 21 0 21 1 2 9 -28 12 -37 12 -30 0z"/>
<path d="M10545 2540 c3 -5 16 -10 28 -9 21 0 21 1 2 9 -28 12 -37 12 -30 0z"/>
</g>
</svg>
